<svg xmlns="http://www.w3.org/2000/svg" width="1024" height="600" viewBox="0 0 1024 600"><defs><style>.a,.b,.c{fill:none;stroke:#000;}.a,.c{stroke-linecap:round;}.a{stroke-linejoin:round;}.b,.c{stroke-miterlimit:10;}</style></defs><title>WEB-PRODUCT-DRAWINGS</title><path class="a" d="M164.62,391.51a2.39,2.39,0,0,0,.23-.22,2.65,2.65,0,0,0,.21-.26l.21-.37a1.88,1.88,0,0,0,.14-.42,2.2,2.2,0,0,0,.07-.37,2.51,2.51,0,0,0,0-.39,2.76,2.76,0,0,0-.06-.4,2.64,2.64,0,0,0-.12-.4l-.15-.31"/><path class="a" d="M165.16,399.28a10.9,10.9,0,0,0,0-10.91"/><path class="a" d="M165.16,399.28c.06-.13.13-.26.18-.39a1.92,1.92,0,0,0,.09-.32,1.77,1.77,0,0,0,0-.32c0-.11,0-.22,0-.33a3.11,3.11,0,0,0,0-.32,2.09,2.09,0,0,0-.11-.43,2.64,2.64,0,0,0-.18-.38,1.8,1.8,0,0,0-.24-.35l-.3-.3"/><path class="a" d="M164.62,396.14l-.28-.27a2.85,2.85,0,0,1-.25-.33,3.44,3.44,0,0,1-.22-.38c0-.09-.09-.19-.13-.3a3,3,0,0,1-.09-.32c0-.12-.05-.24-.07-.36s0-.24,0-.37,0-.21,0-.31a2.87,2.87,0,0,1,0-.31,3.1,3.1,0,0,1,.1-.36,2.52,2.52,0,0,1,.14-.33,2.55,2.55,0,0,1,.25-.43,2.6,2.6,0,0,1,.3-.36l.2-.2"/><path class="a" d="M162.17,400.39a2.42,2.42,0,0,0,.36.1,1.72,1.72,0,0,0,.39,0,2,2,0,0,0,.42,0,2.13,2.13,0,0,0,.42-.1,1.43,1.43,0,0,0,.34-.14,2.17,2.17,0,0,0,.33-.19,2.51,2.51,0,0,0,.31-.26,2,2,0,0,0,.27-.31l.15-.23"/><path class="a" d="M155.7,404.74a10.92,10.92,0,0,0,9.46-5.46"/><path class="a" d="M155.7,404.74a3.42,3.42,0,0,0,.45,0,1.57,1.57,0,0,0,.31-.08,1.66,1.66,0,0,0,.31-.12,1.64,1.64,0,0,0,.29-.16,2.48,2.48,0,0,0,.26-.19,2.91,2.91,0,0,0,.3-.31,2,2,0,0,0,.25-.35,2.64,2.64,0,0,0,.18-.38,3,3,0,0,0,.11-.4"/><path class="a" d="M158.16,402.71a4.27,4.27,0,0,1,.13-.48,2.62,2.62,0,0,1,.23-.48,2.2,2.2,0,0,1,.18-.28,3.11,3.11,0,0,1,.23-.28l.23-.22.26-.2.28-.18.3-.14.28-.1.28-.07a3.19,3.19,0,0,1,.42,0h.41a2.57,2.57,0,0,1,.4.06l.38.1"/><path class="a" d="M146.25,399.28c.07.11.14.22.21.31a1.7,1.7,0,0,0,.22.24l.25.22.28.17a2,2,0,0,0,.3.14,2.13,2.13,0,0,0,.33.11l.35,0a1.93,1.93,0,0,0,.48,0,2.3,2.3,0,0,0,.47-.1l.1,0"/><path class="a" d="M149.24,400.39c.15,0,.31-.09.48-.12a2.76,2.76,0,0,1,.51,0l.34,0a2.25,2.25,0,0,1,.36.06l.3.09a1.66,1.66,0,0,1,.31.12l.3.16.27.19a2.11,2.11,0,0,1,.23.19l.2.2.26.34.2.35a3.12,3.12,0,0,1,.15.39c0,.12.07.25.1.38"/><path class="a" d="M153.25,402.71c0,.12.06.24.1.37a2.83,2.83,0,0,0,.16.36,2.54,2.54,0,0,0,.23.34,1.5,1.5,0,0,0,.3.32,3.11,3.11,0,0,0,.28.23,2.21,2.21,0,0,0,.34.18,2.35,2.35,0,0,0,.37.14,2.7,2.7,0,0,0,.41.08h.26"/><path class="a" d="M146.25,399.28a10.91,10.91,0,0,0,9.45,5.46"/><path class="a" d="M155.7,382.91l-.44,0L155,383a1.66,1.66,0,0,0-.31.12,2.69,2.69,0,0,0-.29.16,2.48,2.48,0,0,0-.26.19,3,3,0,0,0-.31.31,2.71,2.71,0,0,0-.24.35,3.26,3.26,0,0,0-.18.38,3.45,3.45,0,0,0-.11.4"/><path class="a" d="M153.25,384.94c0,.16-.08.32-.13.48a2.62,2.62,0,0,1-.23.48,2.29,2.29,0,0,1-.18.29l-.23.27a2.39,2.39,0,0,1-.23.22l-.26.2a2.2,2.2,0,0,1-.28.18l-.31.14-.27.1-.28.07a2.18,2.18,0,0,1-.43.05H150a2.57,2.57,0,0,1-.4-.06,2.36,2.36,0,0,1-.38-.1"/><path class="a" d="M146.25,388.37l.1-.16.11-.15a1.7,1.7,0,0,1,.22-.24,2.32,2.32,0,0,1,.25-.21,2.2,2.2,0,0,1,.28-.18l.3-.14a2.07,2.07,0,0,1,.33-.1,2.14,2.14,0,0,1,.35-.06,2.57,2.57,0,0,1,.48,0,2.3,2.3,0,0,1,.47.1l.1,0"/><path class="a" d="M155.7,382.91a10.91,10.91,0,0,0-9.45,5.46"/><path class="a" d="M146.78,391.51a3.83,3.83,0,0,1,.29.28,2.72,2.72,0,0,1,.25.32,3.44,3.44,0,0,1,.22.38,2.08,2.08,0,0,1,.12.3,2.58,2.58,0,0,1,.1.33,2,2,0,0,1,.06.35,2.31,2.31,0,0,1,0,.37c0,.11,0,.21,0,.32s0,.21-.05.31a3.57,3.57,0,0,1-.1.35,2.52,2.52,0,0,1-.14.33,2.55,2.55,0,0,1-.25.43,2.12,2.12,0,0,1-.3.36,2,2,0,0,1-.21.2"/><path class="a" d="M146.78,396.14l-.22.23a1.33,1.33,0,0,0-.21.26,2.12,2.12,0,0,0-.21.36,2.3,2.3,0,0,0-.14.42,2.2,2.2,0,0,0-.07.37,2.54,2.54,0,0,0,0,.39,2.76,2.76,0,0,0,.06.4,2.64,2.64,0,0,0,.12.4,3,3,0,0,0,.15.31"/><path class="a" d="M146.25,388.37a10.9,10.9,0,0,0,0,10.91"/><path class="a" d="M146.78,391.51l-.22-.22a1.71,1.71,0,0,1-.21-.26,2.71,2.71,0,0,1-.21-.37,1.88,1.88,0,0,1-.14-.42,2.2,2.2,0,0,1-.07-.37,2.51,2.51,0,0,1,0-.39,2.76,2.76,0,0,1,.06-.4,2.64,2.64,0,0,1,.12-.4,3,3,0,0,1,.15-.31"/><path class="a" d="M135.09,393.83a20.62,20.62,0,1,1,20.61,20.61,20.62,20.62,0,0,1-20.61-20.61Z"/><path class="a" d="M162.17,387.26a3.74,3.74,0,0,1-.48.12,2.87,2.87,0,0,1-.52.05l-.34,0-.35-.06-.31-.08-.3-.13a2.19,2.19,0,0,1-.3-.16,1.65,1.65,0,0,1-.27-.19,2.11,2.11,0,0,1-.23-.19,1.89,1.89,0,0,1-.2-.2l-.26-.34c-.07-.12-.14-.23-.2-.35a3.73,3.73,0,0,1-.15-.38c0-.13-.07-.26-.1-.39"/><path class="a" d="M165.16,388.37a10.92,10.92,0,0,0-9.46-5.46"/><path class="a" d="M158.16,384.94c0-.12-.06-.24-.1-.36a2.43,2.43,0,0,0-.16-.37,2.54,2.54,0,0,0-.23-.34,3,3,0,0,0-.3-.32,2.21,2.21,0,0,0-.29-.22,1.86,1.86,0,0,0-.34-.19,2.24,2.24,0,0,0-.36-.14,2.93,2.93,0,0,0-.41-.07l-.27,0"/><path class="a" d="M165.16,388.37a1.4,1.4,0,0,1-.1-.16l-.11-.15a2.61,2.61,0,0,0-.22-.24,2.32,2.32,0,0,0-.25-.21,2.2,2.2,0,0,0-.28-.18l-.3-.14a2.07,2.07,0,0,0-.33-.1,2.14,2.14,0,0,0-.35-.06,2.67,2.67,0,0,0-.49,0,2.46,2.46,0,0,0-.47.1l-.09,0"/><path class="a" d="M382.93,391.51l.23-.22a2.56,2.56,0,0,0,.2-.26,2.71,2.71,0,0,0,.21-.37,1.88,1.88,0,0,0,.14-.42,1.51,1.51,0,0,0,.07-.37,2.51,2.51,0,0,0,0-.39,2.76,2.76,0,0,0-.06-.4,2.64,2.64,0,0,0-.12-.4,3,3,0,0,0-.15-.31"/><path class="a" d="M383.46,399.28a10.9,10.9,0,0,0,0-10.91"/><path class="a" d="M383.46,399.28a3.39,3.39,0,0,0,.18-.39c0-.11.07-.21.1-.32s0-.21,0-.32a1.82,1.82,0,0,0,0-.33,1.65,1.65,0,0,0,0-.32,2.09,2.09,0,0,0-.11-.43,2.64,2.64,0,0,0-.18-.38,1.8,1.8,0,0,0-.24-.35,4.11,4.11,0,0,0-.29-.3"/><path class="a" d="M382.93,396.14l-.29-.27a2.85,2.85,0,0,1-.25-.33,3.44,3.44,0,0,1-.22-.38,2.08,2.08,0,0,1-.12-.3,3,3,0,0,1-.1-.32,2.25,2.25,0,0,1-.06-.36,2.22,2.22,0,0,1,0-.37c0-.1,0-.21,0-.31a2.87,2.87,0,0,1,.05-.31,3.1,3.1,0,0,1,.1-.36,2.52,2.52,0,0,1,.14-.33,2.55,2.55,0,0,1,.25-.43,2.6,2.6,0,0,1,.3-.36l.21-.2"/><path class="a" d="M365.09,391.51l.28.28a2.72,2.72,0,0,1,.25.32,3.44,3.44,0,0,1,.22.38c0,.09.09.19.13.3a2.62,2.62,0,0,1,.09.33c0,.11.05.23.07.35s0,.25,0,.37,0,.21,0,.32,0,.21-.05.31a3.57,3.57,0,0,1-.1.35,2.52,2.52,0,0,1-.14.33,2.55,2.55,0,0,1-.25.43,2.12,2.12,0,0,1-.3.36,1.89,1.89,0,0,1-.2.2"/><path class="a" d="M365.09,396.14l-.23.23a1.83,1.83,0,0,0-.21.26,3.07,3.07,0,0,0-.2.36,2.35,2.35,0,0,0-.15.42,2.2,2.2,0,0,0-.07.37,2.54,2.54,0,0,0,0,.39,2.76,2.76,0,0,0,.06.4,2.64,2.64,0,0,0,.12.4l.15.31"/><path class="a" d="M364.55,388.37a10.9,10.9,0,0,0,0,10.91"/><path class="a" d="M365.09,391.51a2.39,2.39,0,0,1-.23-.22,2.65,2.65,0,0,1-.21-.26c-.07-.12-.14-.24-.2-.37a1.9,1.9,0,0,1-.15-.42,2.2,2.2,0,0,1-.07-.37,2.51,2.51,0,0,1,0-.39,2.76,2.76,0,0,1,.06-.4,2.64,2.64,0,0,1,.12-.4l.15-.31"/><path class="a" d="M374,404.74a10.91,10.91,0,0,0,9.45-5.46"/><path class="a" d="M376.46,402.71c0-.16.08-.32.13-.48a2.62,2.62,0,0,1,.23-.48,2.2,2.2,0,0,1,.18-.28,3.11,3.11,0,0,1,.23-.28l.23-.22.26-.2.28-.18.31-.14.27-.1.28-.07a3.34,3.34,0,0,1,.43,0h.4a2.57,2.57,0,0,1,.4.06l.38.1"/><path class="a" d="M374,404.74a3.27,3.27,0,0,0,.44,0,2.41,2.41,0,0,0,.62-.2,1.64,1.64,0,0,0,.29-.16,2.48,2.48,0,0,0,.26-.19,3,3,0,0,0,.31-.31,2.71,2.71,0,0,0,.24-.35,2.64,2.64,0,0,0,.18-.38,3,3,0,0,0,.11-.4"/><path class="a" d="M380.47,400.39a2.24,2.24,0,0,0,.37.1,1.58,1.58,0,0,0,.38,0,2,2,0,0,0,.42,0,2.13,2.13,0,0,0,.42-.1,1.43,1.43,0,0,0,.34-.14,1.77,1.77,0,0,0,.33-.19,2.51,2.51,0,0,0,.31-.26,2,2,0,0,0,.27-.31l.15-.23"/><path class="a" d="M383.46,388.37a10.91,10.91,0,0,0-9.45-5.46"/><path class="a" d="M374,382.91a10.92,10.92,0,0,0-9.46,5.46"/><path class="a" d="M364.55,399.28a10.92,10.92,0,0,0,9.46,5.46"/><path class="a" d="M380.47,387.26a3.59,3.59,0,0,1-.47.12,3,3,0,0,1-.52.05l-.34,0-.36-.06-.3-.08-.31-.13a2.19,2.19,0,0,1-.3-.16,2.22,2.22,0,0,1-.27-.19,2.11,2.11,0,0,1-.23-.19l-.2-.2-.26-.34a3,3,0,0,1-.19-.35,2.39,2.39,0,0,1-.16-.38c0-.13-.07-.26-.1-.39"/><path class="a" d="M383.46,388.37l-.1-.16-.11-.15a1.7,1.7,0,0,0-.22-.24,2.32,2.32,0,0,0-.25-.21,2.2,2.2,0,0,0-.28-.18l-.29-.14a2.56,2.56,0,0,0-.34-.1l-.34-.06a2.67,2.67,0,0,0-.49,0,2.3,2.3,0,0,0-.47.1l-.1,0"/><path class="a" d="M376.46,384.94c0-.12-.06-.24-.1-.36a2.43,2.43,0,0,0-.16-.37,2.54,2.54,0,0,0-.23-.34,1.79,1.79,0,0,0-.3-.32,2.09,2.09,0,0,0-.28-.22,2.27,2.27,0,0,0-.34-.19,2.35,2.35,0,0,0-.37-.14,2.7,2.7,0,0,0-.41-.07l-.26,0"/><path class="a" d="M371.55,384.94a4.27,4.27,0,0,1-.13.48,3.41,3.41,0,0,1-.22.48l-.19.29-.23.27a2.39,2.39,0,0,1-.23.22l-.26.2a1.67,1.67,0,0,1-.28.18l-.3.14-.28.1-.28.07a2.09,2.09,0,0,1-.42.05h-.41a2.57,2.57,0,0,1-.4-.06,2.36,2.36,0,0,1-.38-.1"/><path class="a" d="M364.55,388.37a1.4,1.4,0,0,0,.1-.16l.11-.15a2.61,2.61,0,0,1,.22-.24,2.32,2.32,0,0,1,.25-.21,2.2,2.2,0,0,1,.28-.18l.3-.14a2.07,2.07,0,0,1,.33-.1,2.14,2.14,0,0,1,.35-.06,2.67,2.67,0,0,1,.49,0,2.46,2.46,0,0,1,.47.1l.09,0"/><path class="a" d="M374,382.91l-.45,0-.31.08a1.66,1.66,0,0,0-.31.12l-.29.16a2.48,2.48,0,0,0-.26.19,2.91,2.91,0,0,0-.3.31,2,2,0,0,0-.25.35,3.26,3.26,0,0,0-.18.38,3.45,3.45,0,0,0-.11.4"/><path class="a" d="M367.54,400.39c.16,0,.31-.09.48-.12a2.87,2.87,0,0,1,.52,0l.34,0,.35.06.31.09.3.12.3.16a2.61,2.61,0,0,1,.27.19,2.11,2.11,0,0,1,.23.19l.2.2a3.85,3.85,0,0,1,.26.34l.2.35a3.12,3.12,0,0,1,.15.39c0,.12.07.25.1.38"/><path class="a" d="M364.55,399.28c.07.11.14.22.21.31a2.61,2.61,0,0,0,.22.24l.25.22.28.17a2,2,0,0,0,.3.14,2.13,2.13,0,0,0,.33.11l.35,0a2,2,0,0,0,.49,0,2.46,2.46,0,0,0,.47-.1l.09,0"/><path class="a" d="M371.55,402.71c0,.12.06.24.1.37a2.83,2.83,0,0,0,.16.36,2.54,2.54,0,0,0,.23.34,2.75,2.75,0,0,0,.59.55,1.83,1.83,0,0,0,.34.18,2.24,2.24,0,0,0,.36.14,3,3,0,0,0,.41.08H374"/><path class="a" d="M353.39,393.83A20.62,20.62,0,1,1,374,414.44a20.62,20.62,0,0,1-20.62-20.61Z"/><line class="a" x1="123.09" y1="179.41" x2="125.26" y2="179.41"/><line class="a" x1="579.1" y1="179.41" x2="581.26" y2="179.41"/><line class="a" x1="516.03" y1="179.41" x2="518.2" y2="179.41"/><line class="a" x1="186.15" y1="179.41" x2="188.32" y2="179.41"/><path class="a" d="M199.43,418.53a4.85,4.85,0,0,0,2.36-4.16"/><path class="a" d="M204.22,426.49V414.37"/><path class="a" d="M201.79,369.57a2.42,2.42,0,0,0-2.43-2.42"/><path class="a" d="M204.22,369.57a4.86,4.86,0,0,0-4.86-4.85"/><line class="a" x1="199.43" y1="418.53" x2="184.57" y2="427.44"/><line class="a" x1="204.22" y1="432.64" x2="204.22" y2="426.49"/><path class="a" d="M199.36,437.49a4.86,4.86,0,0,0,4.86-4.85"/><line class="a" x1="190.59" y1="437.49" x2="199.36" y2="437.49"/><line class="a" x1="201.79" y1="369.57" x2="201.79" y2="414.37"/><line class="a" x1="204.22" y1="414.37" x2="204.22" y2="369.57"/><line class="a" x1="178.5" y1="392.37" x2="178.5" y2="395.28"/><path class="a" d="M178.5,392.37a22.8,22.8,0,0,0-45.6,0"/><line class="a" x1="132.9" y1="395.28" x2="132.9" y2="392.37"/><path class="a" d="M132.9,395.28a22.8,22.8,0,0,0,45.6,0"/><line class="a" x1="174.59" y1="430.21" x2="136.82" y2="430.21"/><path class="a" d="M126.84,427.44a19.42,19.42,0,0,0,10,2.77"/><line class="a" x1="126.84" y1="427.44" x2="111.97" y2="418.53"/><path class="a" d="M109.62,414.37a4.86,4.86,0,0,0,2.35,4.16"/><line class="a" x1="109.62" y1="414.37" x2="109.62" y2="369.57"/><path class="a" d="M112,367.15a2.42,2.42,0,0,0-2.42,2.42"/><line class="a" x1="112.04" y1="367.15" x2="199.36" y2="367.15"/><path class="a" d="M174.59,430.21a19.42,19.42,0,0,0,10-2.77"/><line class="a" x1="199.36" y1="364.72" x2="112.04" y2="364.72"/><path class="a" d="M174.59,437.49h16"/><path class="a" d="M177.53,392.37a21.83,21.83,0,0,0-43.66,0"/><line class="a" x1="177.53" y1="395.28" x2="177.53" y2="392.37"/><path class="a" d="M133.87,395.28a21.83,21.83,0,0,0,43.66,0"/><line class="a" x1="136.82" y1="437.49" x2="174.59" y2="437.49"/><path class="a" d="M120.81,437.49h16"/><line class="a" x1="133.87" y1="392.37" x2="133.87" y2="395.28"/><line class="a" x1="112.04" y1="437.49" x2="120.81" y2="437.49"/><path class="a" d="M107.19,432.64a4.85,4.85,0,0,0,4.85,4.85"/><line class="a" x1="107.19" y1="432.64" x2="107.19" y2="426.49"/><path class="a" d="M112,364.72a4.85,4.85,0,0,0-4.85,4.85"/><path class="a" d="M107.19,426.49V414.37"/><line class="a" x1="107.19" y1="414.37" x2="107.19" y2="369.57"/><line class="a" x1="396.81" y1="392.37" x2="396.81" y2="395.28"/><path class="a" d="M396.81,392.37a22.8,22.8,0,0,0-45.6,0"/><line class="a" x1="351.21" y1="395.28" x2="351.21" y2="392.37"/><path class="a" d="M351.21,395.28a22.8,22.8,0,0,0,45.6,0"/><line class="a" x1="392.89" y1="430.21" x2="355.12" y2="430.21"/><path class="a" d="M345.14,427.44a19.42,19.42,0,0,0,10,2.77"/><line class="a" x1="345.14" y1="427.44" x2="330.28" y2="418.53"/><path class="a" d="M327.92,414.37a4.85,4.85,0,0,0,2.36,4.16"/><line class="a" x1="327.92" y1="414.37" x2="327.92" y2="369.57"/><path class="a" d="M330.35,367.15a2.42,2.42,0,0,0-2.43,2.42"/><line class="a" x1="330.35" y1="367.15" x2="417.67" y2="367.15"/><path class="a" d="M420.09,369.57a2.42,2.42,0,0,0-2.42-2.42"/><line class="a" x1="420.09" y1="369.57" x2="420.09" y2="414.37"/><path class="a" d="M417.74,418.53a4.86,4.86,0,0,0,2.35-4.16"/><line class="a" x1="417.74" y1="418.53" x2="402.87" y2="427.44"/><path class="a" d="M392.89,430.21a19.42,19.42,0,0,0,10-2.77"/><path class="a" d="M422.52,426.49V414.37"/><path class="a" d="M422.52,369.57a4.85,4.85,0,0,0-4.85-4.85"/><line class="a" x1="422.52" y1="432.64" x2="422.52" y2="426.49"/><path class="a" d="M417.67,437.49a4.85,4.85,0,0,0,4.85-4.85"/><line class="a" x1="408.9" y1="437.49" x2="417.67" y2="437.49"/><line class="a" x1="422.52" y1="414.37" x2="422.52" y2="369.57"/><line class="a" x1="417.67" y1="364.72" x2="330.35" y2="364.72"/><path class="a" d="M392.89,437.49h16"/><line class="a" x1="395.84" y1="395.28" x2="395.84" y2="392.37"/><path class="a" d="M352.18,395.28a21.83,21.83,0,0,0,43.66,0"/><path class="a" d="M395.84,392.37a21.83,21.83,0,0,0-43.66,0"/><line class="a" x1="355.12" y1="437.49" x2="392.89" y2="437.49"/><line class="a" x1="352.18" y1="392.37" x2="352.18" y2="395.28"/><path class="a" d="M339.12,437.49h16"/><line class="a" x1="330.35" y1="437.49" x2="339.12" y2="437.49"/><path class="a" d="M325.49,432.64a4.86,4.86,0,0,0,4.86,4.85"/><line class="a" x1="325.49" y1="432.64" x2="325.49" y2="426.49"/><path class="a" d="M330.35,364.72a4.86,4.86,0,0,0-4.86,4.85"/><line class="a" x1="325.49" y1="414.37" x2="325.49" y2="369.57"/><path class="a" d="M325.49,426.49V414.37"/><line class="a" x1="206.64" y1="184.99" x2="206.64" y2="186.63"/><line class="a" x1="204.22" y1="186.63" x2="204.22" y2="183.35"/><line class="a" x1="206.64" y1="186.63" x2="206.64" y2="216.27"/><line class="a" x1="204.22" y1="216.27" x2="206.64" y2="216.27"/><line class="a" x1="204.22" y1="216.27" x2="204.22" y2="186.63"/><line class="a" x1="107.19" y1="183.35" x2="107.19" y2="186.63"/><line class="a" x1="107.19" y1="186.63" x2="107.19" y2="216.27"/><line class="a" x1="107.19" y1="216.27" x2="204.22" y2="216.27"/><line class="a" x1="204.22" y1="218.7" x2="206.64" y2="216.27"/><line class="a" x1="204.22" y1="216.27" x2="204.22" y2="218.7"/><line class="a" x1="204.22" y1="218.7" x2="107.19" y2="218.7"/><line class="a" x1="107.19" y1="216.27" x2="107.19" y2="218.7"/><line class="a" x1="104.77" y1="186.63" x2="104.77" y2="184.99"/><line class="a" x1="107.19" y1="216.27" x2="104.77" y2="216.27"/><line class="a" x1="104.77" y1="216.27" x2="104.77" y2="186.63"/><line class="a" x1="104.77" y1="216.27" x2="107.19" y2="218.7"/><path class="a" d="M124.17,147.7c-8,0-14.55,7.1-14.55,15.87s6.51,15.88,14.55,15.88,14.56-7.11,14.56-15.88-6.52-15.87-14.56-15.87Z"/><line class="a" x1="107.19" y1="128.1" x2="107.19" y2="183.35"/><line class="a" x1="204.22" y1="183.35" x2="204.22" y2="128.1"/><path class="a" d="M187.24,147.7c-8,0-14.56,7.1-14.56,15.87s6.52,15.88,14.56,15.88,14.55-7.11,14.55-15.88-6.52-15.87-14.55-15.87Z"/><line class="a" x1="206.64" y1="129.74" x2="206.64" y2="184.99"/><line class="a" x1="104.77" y1="184.99" x2="104.77" y2="129.74"/><line class="a" x1="204.22" y1="128.1" x2="204.22" y2="126.53"/><line class="a" x1="206.64" y1="128.95" x2="204.22" y2="126.53"/><line class="a" x1="206.64" y1="128.95" x2="206.64" y2="129.74"/><line class="a" x1="107.19" y1="126.53" x2="107.19" y2="128.1"/><line class="a" x1="107.19" y1="126.53" x2="204.22" y2="126.53"/><line class="a" x1="107.19" y1="126.53" x2="104.77" y2="128.95"/><line class="a" x1="104.77" y1="129.74" x2="104.77" y2="128.95"/><line class="a" x1="118.09" y1="126.53" x2="118.11" y2="126.53"/><path class="a" d="M118.61,126.53h.46"/><path class="a" d="M129.36,126.53h.46"/><line class="a" x1="130.05" y1="126.53" x2="130.09" y2="126.53"/><line class="a" x1="119.33" y1="126.53" x2="119.57" y2="126.53"/><line class="a" x1="128.51" y1="126.53" x2="128.85" y2="126.53"/><path class="a" d="M118.27,126.53h.08"/><line class="a" x1="599.58" y1="186.63" x2="599.58" y2="216.27"/><line class="a" x1="597.16" y1="216.27" x2="599.58" y2="216.27"/><line class="a" x1="597.16" y1="216.27" x2="597.16" y2="186.63"/><line class="a" x1="599.58" y1="184.99" x2="599.58" y2="186.63"/><line class="a" x1="597.16" y1="186.63" x2="597.16" y2="183.35"/><line class="a" x1="597.16" y1="218.7" x2="599.58" y2="216.27"/><line class="a" x1="597.16" y1="216.27" x2="597.16" y2="218.7"/><line class="a" x1="500.14" y1="216.27" x2="597.16" y2="216.27"/><line class="a" x1="597.16" y1="218.7" x2="500.14" y2="218.7"/><line class="a" x1="500.14" y1="216.27" x2="500.14" y2="218.7"/><line class="a" x1="500.14" y1="183.35" x2="500.14" y2="186.63"/><line class="a" x1="500.14" y1="186.63" x2="500.14" y2="216.27"/><line class="a" x1="497.71" y1="216.27" x2="500.14" y2="218.7"/><line class="a" x1="500.14" y1="216.27" x2="497.71" y2="216.27"/><line class="a" x1="497.71" y1="216.27" x2="497.71" y2="186.63"/><line class="a" x1="497.71" y1="186.63" x2="497.71" y2="184.99"/><line class="a" x1="599.58" y1="129.74" x2="599.58" y2="184.99"/><line class="a" x1="597.16" y1="183.35" x2="597.16" y2="128.1"/><path class="a" d="M517.11,147.7c-8,0-14.55,7.1-14.55,15.87s6.52,15.88,14.55,15.88,14.56-7.11,14.56-15.88-6.52-15.87-14.56-15.87Z"/><line class="a" x1="500.14" y1="128.1" x2="500.14" y2="183.35"/><path class="a" d="M580.18,147.7c-8,0-14.55,7.1-14.55,15.87s6.51,15.88,14.55,15.88,14.55-7.11,14.55-15.88-6.51-15.87-14.55-15.87Z"/><line class="a" x1="497.71" y1="184.99" x2="497.71" y2="129.74"/><line class="a" x1="597.16" y1="128.1" x2="597.16" y2="126.53"/><line class="a" x1="599.58" y1="128.95" x2="597.16" y2="126.53"/><line class="a" x1="599.58" y1="128.95" x2="599.58" y2="129.74"/><line class="a" x1="500.14" y1="126.53" x2="500.14" y2="128.1"/><line class="a" x1="500.14" y1="126.53" x2="597.16" y2="126.53"/><line class="a" x1="500.14" y1="126.53" x2="497.71" y2="128.95"/><line class="a" x1="497.71" y1="129.74" x2="497.71" y2="128.95"/><path class="a" d="M522.3,126.53h.47"/><line class="a" x1="523" y1="126.53" x2="523.03" y2="126.53"/><line class="a" x1="512.27" y1="126.53" x2="512.51" y2="126.53"/><line class="a" x1="521.45" y1="126.53" x2="521.79" y2="126.53"/><path class="a" d="M511.21,126.53h.08"/><line class="a" x1="500.14" y1="221.13" x2="500.14" y2="253.07"/><line class="a" x1="597.16" y1="221.13" x2="500.14" y2="221.13"/><line class="a" x1="597.16" y1="253.07" x2="597.16" y2="221.13"/><line class="a" x1="599.58" y1="253.07" x2="599.58" y2="254.79"/><line class="a" x1="597.16" y1="256.5" x2="597.16" y2="253.07"/><line class="a" x1="500.14" y1="253.07" x2="500.14" y2="256.5"/><line class="a" x1="599.58" y1="221.13" x2="597.16" y2="221.13"/><line class="a" x1="597.16" y1="218.7" x2="597.16" y2="221.13"/><line class="a" x1="599.58" y1="221.13" x2="597.16" y2="218.7"/><line class="a" x1="599.58" y1="221.13" x2="599.58" y2="253.07"/><line class="a" x1="500.14" y1="218.7" x2="500.14" y2="221.13"/><line class="a" x1="497.71" y1="254.79" x2="497.71" y2="253.07"/><line class="a" x1="497.71" y1="253.07" x2="497.71" y2="221.13"/><line class="a" x1="497.71" y1="221.13" x2="500.14" y2="221.13"/><line class="a" x1="500.14" y1="218.7" x2="497.71" y2="221.13"/><line class="a" x1="107.19" y1="221.13" x2="107.19" y2="253.07"/><line class="a" x1="204.22" y1="221.13" x2="107.19" y2="221.13"/><line class="a" x1="204.22" y1="253.07" x2="204.22" y2="221.13"/><line class="a" x1="204.22" y1="218.7" x2="204.22" y2="221.13"/><line class="a" x1="107.19" y1="218.7" x2="107.19" y2="221.13"/><line class="a" x1="107.19" y1="253.07" x2="107.19" y2="256.5"/><line class="a" x1="204.22" y1="256.5" x2="204.22" y2="253.07"/><line class="a" x1="206.64" y1="221.13" x2="206.64" y2="253.07"/><line class="a" x1="206.64" y1="221.13" x2="204.22" y2="221.13"/><line class="a" x1="206.64" y1="253.07" x2="206.64" y2="254.79"/><line class="a" x1="206.64" y1="221.13" x2="204.22" y2="218.7"/><line class="a" x1="104.77" y1="221.13" x2="107.19" y2="221.13"/><line class="a" x1="107.19" y1="218.7" x2="104.77" y2="221.13"/><line class="a" x1="104.77" y1="253.07" x2="104.77" y2="221.13"/><line class="a" x1="104.77" y1="254.79" x2="104.77" y2="253.07"/><line class="a" x1="500.14" y1="256.5" x2="500.14" y2="325.01"/><line class="a" x1="597.16" y1="325.01" x2="597.16" y2="256.5"/><polyline class="a" points="548.65 291.1 548.02 291.11 547.39 291.15 546.77 291.2 546.15 291.29 545.53 291.39 544.93 291.51 544.34 291.66 543.75 291.83 543.18 292.02 542.63 292.23 542.09 292.46 541.57 292.71 541.07 292.98 540.59 293.27 540.13 293.57 539.69 293.89 539.28 294.23 538.89 294.58 538.53 294.95 538.2 295.32 537.89 295.71 537.62 296.12 537.37 296.52 537.15 296.94 536.97 297.37 536.81 297.8 536.69 298.24 536.6 298.68 536.54 299.12 536.52 299.57 536.53 300.01 536.57 300.45 536.64 300.9 536.75 301.34 536.89 301.77 537.06 302.2 537.26 302.62 537.49 303.04 537.75 303.44 538.04 303.84 538.36 304.22 538.71 304.59 539.08 304.95 539.48 305.29 539.91 305.62 540.35 305.94 540.83 306.23 541.32 306.51 541.83 306.77 542.36 307.01 542.9 307.23 543.47 307.43 544.04 307.61 544.63 307.77 545.23 307.91 545.84 308.02 546.46 308.11 547.08 308.18 547.7 308.23 548.33 308.25 548.96 308.25 549.59 308.23 550.22 308.18 550.84 308.11 551.46 308.02 552.06 307.91 552.66 307.77 553.25 307.61 553.83 307.43 554.39 307.23 554.94 307.01 555.47 306.77 555.98 306.51 556.47 306.23 556.94 305.94 557.39 305.62 557.81 305.29 558.21 304.95 558.59 304.59 558.93 304.22 559.25 303.84 559.54 303.44 559.81 303.04 560.04 302.62 560.24 302.2 560.41 301.77 560.55 301.34 560.65 300.9 560.73 300.45 560.77 300.01 560.77 299.57 560.75 299.12 560.69 298.68 560.6 298.24 560.48 297.8 560.33 297.37 560.14 296.94 559.93 296.52 559.68 296.12 559.4 295.71 559.1 295.32 558.76 294.95 558.4 294.58 558.02 294.23 557.6 293.89 557.17 293.57 556.71 293.27 556.23 292.98 555.73 292.71 555.2 292.46 554.67 292.23 554.11 292.02 553.54 291.83 552.96 291.66 552.37 291.51 551.76 291.39 551.15 291.29 550.53 291.2 549.9 291.15 549.28 291.11 548.65 291.1"/><polyline class="a" points="548.65 256.8 548.02 256.81 547.39 256.85 546.77 256.9 546.15 256.98 545.53 257.09 544.93 257.21 544.34 257.36 543.75 257.53 543.18 257.72 542.63 257.93 542.09 258.16 541.57 258.41 541.07 258.68 540.59 258.97 540.13 259.27 539.69 259.59 539.28 259.93 538.89 260.28 538.53 260.64 538.2 261.02 537.89 261.41 537.62 261.81 537.37 262.22 537.15 262.64 536.97 263.06 536.81 263.5 536.69 263.93 536.6 264.38 536.54 264.82 536.52 265.26 536.53 265.71 536.57 266.15 536.64 266.6 536.75 267.03 536.89 267.47 537.06 267.9 537.26 268.32 537.49 268.73 537.75 269.14 538.04 269.53 538.36 269.92 538.71 270.29 539.08 270.65 539.48 270.99 539.91 271.32 540.35 271.63 540.83 271.93 541.32 272.21 541.83 272.47 542.36 272.71 542.9 272.93 543.47 273.13 544.04 273.31 544.63 273.47 545.23 273.6 545.84 273.72 546.46 273.81 547.08 273.88 547.7 273.92 548.33 273.95 548.96 273.95 549.59 273.92 550.22 273.88 550.84 273.81 551.46 273.72 552.06 273.6 552.66 273.47 553.25 273.31 553.83 273.13 554.39 272.93 554.94 272.71 555.47 272.47 555.98 272.21 556.47 271.93 556.94 271.63 557.39 271.32 557.81 270.99 558.21 270.65 558.59 270.29 558.93 269.92 559.25 269.53 559.54 269.14 559.81 268.73 560.04 268.32 560.24 267.9 560.41 267.47 560.55 267.03 560.65 266.6 560.73 266.15 560.77 265.71 560.77 265.26 560.75 264.82 560.69 264.38 560.6 263.93 560.48 263.5 560.33 263.06 560.14 262.64 559.93 262.22 559.68 261.81 559.4 261.41 559.1 261.02 558.76 260.64 558.4 260.28 558.02 259.93 557.6 259.59 557.17 259.27 556.71 258.97 556.23 258.68 555.73 258.41 555.2 258.16 554.67 257.93 554.11 257.72 553.54 257.53 552.96 257.36 552.37 257.21 551.76 257.09 551.15 256.98 550.53 256.9 549.9 256.85 549.28 256.81 548.65 256.8"/><polyline class="a" points="580.18 274.46 580.79 274.48 581.4 274.51 582.01 274.57 582.61 274.65 583.2 274.75 583.79 274.88 584.37 275.03 584.93 275.2 585.48 275.39 586.01 275.6 586.53 275.83 587.03 276.08 587.51 276.35 587.97 276.64 588.4 276.94 588.81 277.26 589.2 277.6 589.56 277.95 589.9 278.31 590.2 278.68 590.48 279.07 590.73 279.47 590.94 279.87 591.13 280.28 591.28 280.7 591.41 281.13 591.5 281.55 591.55 281.99 591.58 282.42 591.57 282.85 591.53 283.28 591.46 283.71 591.35 284.14 591.21 284.56 591.04 284.98 590.84 285.38 590.61 285.79 590.34 286.18 590.05 286.56 589.73 286.93 589.38 287.28 589.01 287.62 588.61 287.95 588.19 288.26 587.74 288.56 587.27 288.84 586.78 289.1 586.27 289.34 585.75 289.56 585.21 289.76 584.65 289.94 584.08 290.1 583.5 290.24 582.91 290.35 582.31 290.44 581.71 290.51 581.1 290.56 580.49 290.58 579.87 290.58 579.26 290.56 578.65 290.51 578.05 290.44 577.45 290.35 576.86 290.24 576.28 290.1 575.71 289.94 575.15 289.76 574.61 289.56 574.09 289.34 573.58 289.1 573.09 288.84 572.62 288.56 572.17 288.26 571.75 287.95 571.35 287.62 570.98 287.28 570.63 286.93 570.31 286.56 570.01 286.18 569.75 285.79 569.52 285.38 569.32 284.98 569.15 284.56 569.01 284.14 568.9 283.71 568.83 283.28 568.79 282.85 568.78 282.42 568.8 281.99 568.86 281.55 568.95 281.13 569.08 280.7 569.23 280.28 569.42 279.87 569.63 279.47 569.88 279.07 570.16 278.68 570.46 278.31 570.8 277.95 571.16 277.6 571.55 277.26 571.96 276.94 572.39 276.64 572.85 276.35 573.33 276.08 573.83 275.83 574.35 275.6 574.88 275.39 575.43 275.2 575.99 275.03 576.57 274.88 577.15 274.75 577.75 274.65 578.35 274.57 578.96 274.51 579.57 274.48 580.18 274.46"/><polyline class="a" points="517.12 274.46 517.73 274.48 518.34 274.51 518.94 274.57 519.54 274.65 520.14 274.75 520.73 274.88 521.3 275.03 521.86 275.2 522.41 275.39 522.95 275.6 523.46 275.83 523.96 276.08 524.44 276.35 524.9 276.64 525.34 276.94 525.75 277.26 526.14 277.6 526.5 277.95 526.83 278.31 527.14 278.68 527.41 279.07 527.66 279.47 527.88 279.87 528.07 280.28 528.22 280.7 528.34 281.13 528.43 281.55 528.49 281.99 528.51 282.42 528.51 282.85 528.47 283.28 528.39 283.71 528.28 284.14 528.15 284.56 527.98 284.98 527.77 285.38 527.54 285.79 527.28 286.18 526.99 286.56 526.67 286.93 526.32 287.28 525.95 287.62 525.55 287.95 525.12 288.26 524.67 288.56 524.21 288.84 523.72 289.1 523.21 289.34 522.68 289.56 522.14 289.76 521.58 289.94 521.01 290.1 520.43 290.24 519.84 290.35 519.25 290.44 518.64 290.51 518.03 290.56 517.42 290.58 516.81 290.58 516.2 290.56 515.59 290.51 514.99 290.44 514.39 290.35 513.8 290.24 513.22 290.1 512.65 289.94 512.09 289.76 511.55 289.56 511.02 289.34 510.51 289.1 510.02 288.84 509.56 288.56 509.11 288.26 508.68 287.95 508.28 287.62 507.91 287.28 507.56 286.93 507.24 286.56 506.95 286.18 506.69 285.79 506.45 285.38 506.25 284.98 506.08 284.56 505.94 284.14 505.84 283.71 505.76 283.28 505.72 282.85 505.72 282.42 505.74 281.99 505.8 281.55 505.89 281.13 506.01 280.7 506.17 280.28 506.35 279.87 506.57 279.47 506.81 279.07 507.09 278.68 507.4 278.31 507.73 277.95 508.09 277.6 508.48 277.26 508.89 276.94 509.33 276.64 509.79 276.35 510.27 276.08 510.76 275.83 511.28 275.6 511.82 275.39 512.37 275.2 512.93 275.03 513.5 274.88 514.09 274.75 514.68 274.65 515.29 274.57 515.89 274.51 516.5 274.48 517.12 274.46"/><line class="a" x1="599.58" y1="254.79" x2="599.58" y2="323.29"/><line class="a" x1="497.71" y1="323.29" x2="497.71" y2="254.79"/><line class="a" x1="116.9" y1="277.04" x2="116.9" y2="297.62"/><path class="a" d="M116.9,297.62a13,13,0,0,0,14.55,10.29"/><line class="a" x1="131.45" y1="307.91" x2="179.96" y2="307.91"/><path class="a" d="M180,307.91a13,13,0,0,0,14.55-10.29"/><line class="a" x1="194.51" y1="297.62" x2="194.51" y2="277.04"/><path class="a" d="M194.51,277A13,13,0,0,0,180,266.74"/><line class="a" x1="179.96" y1="266.74" x2="131.45" y2="266.74"/><path class="a" d="M131.45,266.74A13,13,0,0,0,116.9,277"/><line class="a" x1="107.19" y1="256.5" x2="107.19" y2="325.01"/><line class="a" x1="204.22" y1="325.01" x2="204.22" y2="256.5"/><line class="a" x1="206.64" y1="254.79" x2="206.64" y2="323.29"/><line class="a" x1="104.77" y1="323.29" x2="104.77" y2="254.79"/><polyline class="a" points="548.65 256.8 548.08 256.81 547.52 256.85 546.96 256.9 546.41 256.98 545.87 257.09 545.33 257.21 544.8 257.36 544.29 257.53 543.8 257.72 543.32 257.93 542.85 258.16 542.41 258.4 541.99 258.67 541.59 258.95 541.22 259.25 540.87 259.56 540.54 259.89 540.25 260.23 539.98 260.58 539.74 260.94 539.53 261.31 539.35 261.69 539.21 262.08 539.09 262.47 539.01 262.86 538.96 263.26 538.95 263.66 538.96 264.06 539.01 264.46 539.09 264.85 539.21 265.24 539.35 265.63 539.53 266.01 539.74 266.38 539.98 266.74 540.25 267.09 540.54 267.43 540.87 267.76 541.22 268.07 541.59 268.37 541.99 268.65 542.41 268.92 542.85 269.16 543.32 269.39 543.8 269.6 544.29 269.79 544.8 269.96 545.33 270.11 545.87 270.23 546.41 270.33 546.96 270.42 547.52 270.47 548.08 270.51 548.65 270.52 549.21 270.51 549.77 270.47 550.33 270.42 550.88 270.33 551.43 270.23 551.97 270.11 552.49 269.96 553 269.79 553.5 269.6 553.98 269.39 554.44 269.16 554.88 268.92 555.3 268.65 555.7 268.37 556.08 268.07 556.43 267.76 556.75 267.43 557.05 267.09 557.32 266.74 557.56 266.38 557.76 266.01 557.94 265.63 558.09 265.24 558.2 264.85 558.28 264.46 558.33 264.06 558.35 263.66 558.33 263.26 558.28 262.86 558.2 262.47 558.09 262.08 557.94 261.69 557.76 261.31 557.56 260.94 557.32 260.58 557.05 260.23 556.75 259.89 556.43 259.56 556.08 259.25 555.7 258.95 555.3 258.67 554.88 258.4 554.44 258.16 553.98 257.93 553.5 257.72 553 257.53 552.49 257.36 551.97 257.21 551.43 257.09 550.88 256.98 550.33 256.9 549.77 256.85 549.21 256.81 548.65 256.8"/><path class="a" d="M541.07,259.37a12.24,12.24,0,0,0,15.15,0"/><path class="a" d="M189.66,273.61a8.6,8.6,0,0,0-9.7-6.87"/><path class="a" d="M131.45,266.74a8.72,8.72,0,0,0-9.7,6.87"/><path class="a" d="M571.56,280.56a4.74,4.74,0,0,0,.17,1.5,5.18,5.18,0,0,0,.64,1.45,6.78,6.78,0,0,0,1.07,1.3,8.5,8.5,0,0,0,1.46,1.08,11.11,11.11,0,0,0,3.7,1.34,12.82,12.82,0,0,0,2,.2,12.56,12.56,0,0,0,2-.12,12.18,12.18,0,0,0,1.94-.45,10.24,10.24,0,0,0,1.72-.74,7.49,7.49,0,0,0,2.56-2.15,5.73,5.73,0,0,0,.7-1.31,4.89,4.89,0,0,0,.27-1.4,5,5,0,0,0-.76-2.75"/><path class="a" d="M589.12,278.51a7.66,7.66,0,0,0-2.28-2.21,11.32,11.32,0,0,0-3.3-1.42"/><path class="a" d="M583.54,274.88a9.56,9.56,0,0,1,2.62,1.1,5.59,5.59,0,0,1,1.75,1.61,3.54,3.54,0,0,1,.65,1.92,3.24,3.24,0,0,1-.59,1.93"/><polyline class="a" points="587.97 281.44 588.07 281.07 588.14 280.7 588.18 280.32 588.18 279.95 588.15 279.58 588.08 279.2 587.97 278.84 587.84 278.48 587.67 278.12 587.46 277.77 587.23 277.44 586.96 277.12 586.66 276.81 586.34 276.51 585.99 276.23 585.61 275.97 585.21 275.72 584.79 275.5 584.34 275.29 583.88 275.11 583.4 274.94 582.91 274.81 582.41 274.69 581.89 274.6"/><path class="a" d="M581.89,274.6a10.12,10.12,0,0,0-1.83-.13,10.54,10.54,0,0,0-3.61.63,10,10,0,0,0-1.59.72,7.36,7.36,0,0,0-2.36,2.11,5.35,5.35,0,0,0-.67,1.27,5,5,0,0,0-.27,1.36"/><path class="a" d="M508.5,280.56a4.74,4.74,0,0,0,.16,1.5,5.49,5.49,0,0,0,.64,1.45,6.84,6.84,0,0,0,1.08,1.3,8.41,8.41,0,0,0,1.45,1.08,11.17,11.17,0,0,0,3.71,1.34,13.15,13.15,0,0,0,4.09.08,12.32,12.32,0,0,0,1.93-.45,10.35,10.35,0,0,0,1.73-.74,7.36,7.36,0,0,0,2.55-2.15,5,5,0,0,0,.7-1.31,4.29,4.29,0,0,0,.27-1.4,4.88,4.88,0,0,0-.76-2.75"/><path class="a" d="M526.05,278.51a7.74,7.74,0,0,0-2.27-2.21,11.43,11.43,0,0,0-3.3-1.42"/><path class="a" d="M520.48,274.88a9.7,9.7,0,0,1,2.62,1.1,5.59,5.59,0,0,1,1.75,1.61,3.53,3.53,0,0,1,.64,1.92,3.18,3.18,0,0,1-.59,1.93"/><polyline class="a" points="524.9 281.44 525.01 281.07 525.08 280.7 525.11 280.32 525.12 279.95 525.08 279.58 525.01 279.2 524.91 278.84 524.77 278.48 524.6 278.12 524.4 277.77 524.16 277.44 523.89 277.12 523.6 276.81 523.27 276.51 522.92 276.23 522.54 275.97 522.14 275.72 521.72 275.5 521.28 275.29 520.82 275.11 520.34 274.94 519.85 274.81 519.34 274.69 518.83 274.6"/><path class="a" d="M518.83,274.6a10.23,10.23,0,0,0-1.84-.13,11.33,11.33,0,0,0-1.84.16,11.51,11.51,0,0,0-1.77.47,9.89,9.89,0,0,0-1.58.72,7.4,7.4,0,0,0-2.37,2.11,5.7,5.7,0,0,0-.66,1.27,4.63,4.63,0,0,0-.27,1.36"/><path class="a" d="M576.65,286.7c.21.07.42.14.63.19s.62.15.94.21.65.11,1,.14.66.07,1,.08.66,0,1,0,.65,0,1-.07.63-.08.94-.13.61-.12.9-.2a8.29,8.29,0,0,0,.85-.25c.27-.09.54-.19.8-.3s.52-.23.76-.36.49-.27.72-.42.45-.31.66-.47a7.54,7.54,0,0,0,.59-.52l.37-.42"/><path class="a" d="M513.58,286.7c.21.07.42.14.63.19s.63.15.95.21.64.11,1,.14.66.07,1,.08.66,0,1,0,.65,0,1-.07.64-.08.95-.13.6-.12.9-.2a8.29,8.29,0,0,0,.85-.25c.27-.09.54-.19.79-.3s.52-.23.77-.36.48-.27.71-.42.45-.31.66-.47a7.54,7.54,0,0,0,.59-.52l.38-.42"/><path class="a" d="M572.18,279a4.79,4.79,0,0,0,.51,2.13,6.27,6.27,0,0,0,1.52,1.93,7.39,7.39,0,0,0,1.07.76,7.68,7.68,0,0,0,1.18.6,10.69,10.69,0,0,0,2.75.75,11.58,11.58,0,0,0,2.94,0,11.11,11.11,0,0,0,1.35-.28,7.61,7.61,0,0,0,1.22-.42,7.13,7.13,0,0,0,2-1.31,4.7,4.7,0,0,0,1.2-1.75"/><path class="a" d="M509.11,279a4.93,4.93,0,0,0,.51,2.13,6.46,6.46,0,0,0,1.53,1.93,7.29,7.29,0,0,0,1.06.76,8.72,8.72,0,0,0,1.18.6,10.8,10.8,0,0,0,2.75.75,11.58,11.58,0,0,0,2.94,0,11.28,11.28,0,0,0,1.36-.28,8,8,0,0,0,1.22-.42,7.27,7.27,0,0,0,2.05-1.31,4.55,4.55,0,0,0,1.19-1.75"/><line class="a" x1="189.66" y1="273.61" x2="189.66" y2="294.19"/><line class="a" x1="121.75" y1="294.19" x2="121.75" y2="273.61"/><path class="a" d="M572.42,278.05c.06.18.12.36.19.53a5.84,5.84,0,0,0,.35.65,6.37,6.37,0,0,0,.45.61,5.68,5.68,0,0,0,.53.57,6.18,6.18,0,0,0,.61.52,6.65,6.65,0,0,0,.67.47,6.85,6.85,0,0,0,.71.39c.25.12.5.24.76.34s.53.2.81.28.57.16.87.22.59.12.89.16.61.06.92.08.61,0,.92,0a8.66,8.66,0,0,0,.89-.07c.3,0,.58-.08.87-.13l.81-.2.76-.26a7.65,7.65,0,0,0,.71-.32,6.15,6.15,0,0,0,.67-.38,5.53,5.53,0,0,0,.61-.43,4.88,4.88,0,0,0,.53-.48,4.29,4.29,0,0,0,.45-.52,4.65,4.65,0,0,0,.34-.56A2.06,2.06,0,0,0,588,279h0"/><line class="a" x1="572.22" y1="278.38" x2="572.18" y2="279.01"/><path class="a" d="M509.35,278.05a4.81,4.81,0,0,0,.2.53,4.55,4.55,0,0,0,.35.65,6.25,6.25,0,0,0,.44.61,5.68,5.68,0,0,0,.53.57,7.6,7.6,0,0,0,.61.52,8,8,0,0,0,.67.47q.35.21.72.39c.24.12.49.24.75.34s.54.2.82.28.57.16.86.22.6.12.9.16.61.06.91.08.62,0,.92,0,.6,0,.9-.07.58-.08.86-.13l.82-.2c.26-.08.51-.17.75-.26a7.84,7.84,0,0,0,.72-.32,7.26,7.26,0,0,0,.67-.38,6.67,6.67,0,0,0,.61-.43,4.88,4.88,0,0,0,.53-.48,5.27,5.27,0,0,0,.44-.52,4.73,4.73,0,0,0,.35-.56,2.41,2.41,0,0,0,.25-.57h0"/><line class="a" x1="509.16" y1="278.38" x2="509.11" y2="279.01"/><path class="a" d="M577.89,274.71l.48.12c.29.06.59.11.89.15s.61.07.92.08.61,0,.92,0,.6,0,.89-.06a6.07,6.07,0,0,0,.87-.14l.14,0"/><path class="a" d="M574.92,275.79l.3.2a5.42,5.42,0,0,0,.71.4c.25.12.5.23.76.33s.53.2.81.29.57.16.87.22.59.11.89.15.61.07.92.09h.92a8.67,8.67,0,0,0,.89-.06,7.9,7.9,0,0,0,.87-.14,6.85,6.85,0,0,0,.81-.2c.26-.07.51-.16.76-.25l.71-.32a5.33,5.33,0,0,0,.67-.38h0"/><path class="a" d="M573.44,276.87c.16.18.32.37.5.54a5.21,5.21,0,0,0,.61.52,5.29,5.29,0,0,0,.67.46,5.42,5.42,0,0,0,.71.4l.76.34c.26.1.53.19.81.28s.57.16.87.22.59.11.89.15.61.07.92.09.61,0,.92,0,.6,0,.89-.07.58-.08.87-.13.55-.13.81-.21.51-.16.76-.25.48-.21.71-.32a6.15,6.15,0,0,0,.67-.38,5.53,5.53,0,0,0,.61-.43,4.1,4.1,0,0,0,.53-.48c.08-.08.14-.16.21-.24"/><path class="a" d="M572.56,277.85a.69.69,0,0,1,.05.13,4,4,0,0,0,.35.64,6.49,6.49,0,0,0,.45.62,5.68,5.68,0,0,0,.53.57,6.18,6.18,0,0,0,.61.52,6.65,6.65,0,0,0,.67.47,6.85,6.85,0,0,0,.71.39l.76.34c.26.1.53.19.81.28s.57.16.87.22.59.12.89.16.61.06.92.08.61,0,.92,0a8.66,8.66,0,0,0,.89-.07c.3,0,.58-.08.87-.13l.81-.2.76-.26a7.65,7.65,0,0,0,.71-.32,6.15,6.15,0,0,0,.67-.38,5.53,5.53,0,0,0,.61-.43A4.88,4.88,0,0,0,587,280a5.4,5.4,0,0,0,.45-.52,3.64,3.64,0,0,0,.34-.56c.06-.11.1-.22.15-.33"/><path class="a" d="M573.18,277.12a3.19,3.19,0,0,0,.23.32,4,4,0,0,0,.53.57,6.18,6.18,0,0,0,.61.52,6.65,6.65,0,0,0,.67.47,6.85,6.85,0,0,0,.71.39l.76.34c.26.1.53.19.81.28s.57.16.87.22.59.11.89.15.61.07.92.09.61,0,.92,0,.6,0,.89-.07.58-.08.87-.13l.81-.2.76-.26c.25-.1.48-.21.71-.32a6.15,6.15,0,0,0,.67-.38,5.53,5.53,0,0,0,.61-.43,4.88,4.88,0,0,0,.53-.48c.16-.17.3-.34.44-.52"/><path class="a" d="M574.47,276.07l.08.06a4.66,4.66,0,0,0,.67.46,8.13,8.13,0,0,0,.71.4c.24.12.5.23.76.33s.53.2.81.29.57.16.87.22.59.11.89.15.61.07.92.09h.92c.3,0,.6,0,.89-.07a8.3,8.3,0,0,0,.87-.14,6.85,6.85,0,0,0,.81-.2c.26-.07.51-.16.76-.25s.48-.21.71-.32a5.33,5.33,0,0,0,.67-.38,4.27,4.27,0,0,0,.41-.29"/><path class="a" d="M576.83,275l.67.24c.28.08.57.16.87.22s.59.11.89.15.61.07.92.09h.92c.3,0,.6,0,.89-.06s.58-.08.87-.14a5.33,5.33,0,0,0,.81-.2l.33-.11"/><path class="a" d="M572.2,278.71c0,.12,0,.23,0,.35a3.92,3.92,0,0,0,.15.66,6.42,6.42,0,0,0,.24.66,5.84,5.84,0,0,0,.35.65,5,5,0,0,0,.45.61,5.68,5.68,0,0,0,.53.57,6.27,6.27,0,0,0,.61.53c.21.16.43.31.67.46a6.85,6.85,0,0,0,.71.39c.25.12.5.24.76.34s.53.2.81.28.57.16.87.22a8.72,8.72,0,0,0,.89.16c.31,0,.61.06.92.08s.61,0,.92,0a8.66,8.66,0,0,0,.89-.07c.3,0,.58-.08.87-.13l.81-.2.76-.26a7.65,7.65,0,0,0,.71-.32,6.1,6.1,0,0,0,.67-.37,7.35,7.35,0,0,0,.61-.44,4.88,4.88,0,0,0,.53-.48,5.4,5.4,0,0,0,.45-.52,4.83,4.83,0,0,0,.59-1.13,2.91,2.91,0,0,0,.15-.58c0-.11,0-.22,0-.33"/><path class="a" d="M514.83,274.71l.47.12c.29.06.6.11.9.15s.61.07.91.08.62,0,.92,0,.6,0,.9-.06a6.17,6.17,0,0,0,.86-.14l.14,0"/><path class="a" d="M511.86,275.79l.29.2a5.55,5.55,0,0,0,.72.4q.36.18.75.33c.27.11.54.2.82.29s.57.16.86.22l.9.15c.3,0,.61.07.91.09H518c.3,0,.6,0,.9-.06a8.11,8.11,0,0,0,.86-.14,7.54,7.54,0,0,0,.82-.2c.26-.07.51-.16.75-.25s.49-.21.72-.32a5.33,5.33,0,0,0,.67-.38h0"/><path class="a" d="M510.37,276.87c.16.18.32.37.5.54a6.18,6.18,0,0,0,.61.52,6.11,6.11,0,0,0,.67.46,6.3,6.3,0,0,0,.72.4c.24.12.49.23.75.34l.82.28c.28.08.57.16.86.22s.6.11.9.15.61.07.91.09.62,0,.92,0,.6,0,.9-.07.58-.08.86-.13.55-.13.82-.21.51-.16.75-.25.49-.21.72-.32a7.26,7.26,0,0,0,.67-.38,6.67,6.67,0,0,0,.61-.43,4.88,4.88,0,0,0,.53-.48l.2-.24"/><path class="a" d="M509.5,277.85s0,.09.05.13a3.33,3.33,0,0,0,.35.64,6.37,6.37,0,0,0,.44.62,5.68,5.68,0,0,0,.53.57,7.6,7.6,0,0,0,.61.52,8,8,0,0,0,.67.47q.35.21.72.39c.24.12.49.23.75.34l.82.28c.28.08.57.16.86.22s.6.12.9.16.61.06.91.08.62,0,.92,0,.6,0,.9-.07.58-.08.86-.13l.82-.2c.26-.08.51-.17.75-.26a7.84,7.84,0,0,0,.72-.32,7.26,7.26,0,0,0,.67-.38,6.67,6.67,0,0,0,.61-.43,4.88,4.88,0,0,0,.53-.48,5.27,5.27,0,0,0,.44-.52,3.06,3.06,0,0,0,.35-.56c.05-.11.1-.22.14-.33"/><path class="a" d="M510.11,277.12l.23.32a5.68,5.68,0,0,0,.53.57,7.6,7.6,0,0,0,.61.52,8,8,0,0,0,.67.47q.35.21.72.39c.24.12.49.23.75.34l.82.28c.28.08.57.16.86.22l.9.15c.3,0,.61.07.91.09s.62,0,.92,0,.6,0,.9-.07.58-.08.86-.13l.82-.2c.26-.08.51-.17.75-.26s.49-.21.72-.32a7.26,7.26,0,0,0,.67-.38,6.67,6.67,0,0,0,.61-.43,4.88,4.88,0,0,0,.53-.48c.16-.17.3-.34.44-.52"/><path class="a" d="M511.41,276.07l.07.06a4.66,4.66,0,0,0,.67.46c.23.14.47.28.72.4s.49.23.75.33.54.2.82.29.57.16.86.22l.9.15c.3,0,.61.07.91.09H518c.3,0,.6,0,.9-.07a8.11,8.11,0,0,0,.86-.14,7.54,7.54,0,0,0,.82-.2c.26-.07.51-.16.75-.25s.49-.21.72-.32a7.26,7.26,0,0,0,.67-.38l.41-.29"/><path class="a" d="M513.76,275l.68.24c.28.08.57.16.86.22s.6.11.9.15.61.07.91.09H518l.9-.06c.29,0,.58-.08.86-.14a5.45,5.45,0,0,0,.82-.2l.33-.11"/><path class="a" d="M509.13,278.71c0,.12,0,.23,0,.35a3.88,3.88,0,0,0,.14.66,4.73,4.73,0,0,0,.25.66,5.84,5.84,0,0,0,.35.65,6.25,6.25,0,0,0,.44.61,5.68,5.68,0,0,0,.53.57,7.72,7.72,0,0,0,.61.53c.21.16.44.31.67.46s.47.27.72.39.49.24.75.34.54.2.82.28.57.16.86.22.6.12.9.16.61.06.91.08.62,0,.92,0,.6,0,.9-.07.58-.08.86-.13l.82-.2c.26-.08.51-.17.75-.26a7.84,7.84,0,0,0,.72-.32,7.19,7.19,0,0,0,.67-.37c.21-.14.42-.29.61-.44a4.88,4.88,0,0,0,.53-.48,5.27,5.27,0,0,0,.44-.52,4.73,4.73,0,0,0,.35-.56,3.64,3.64,0,0,0,.25-.57,2.89,2.89,0,0,0,.14-.58c0-.11,0-.22,0-.33"/><path class="a" d="M180,294.19a8.72,8.72,0,0,0,9.7-6.86"/><line class="a" x1="179.96" y1="294.19" x2="131.45" y2="294.19"/><path class="a" d="M121.75,287.33a8.6,8.6,0,0,0,9.7,6.86"/><polyline class="a" points="548.65 291.1 548.08 291.11 547.52 291.15 546.96 291.21 546.41 291.29 545.87 291.39 545.33 291.51 544.8 291.66 544.29 291.83 543.8 292.02 543.32 292.23 542.85 292.46 542.41 292.71 541.99 292.97 541.59 293.25 541.22 293.55 540.87 293.87 540.54 294.19 540.25 294.53 539.98 294.88 539.74 295.25 539.53 295.62 539.35 295.99 539.21 296.38 539.09 296.77 539.01 297.17 538.96 297.56 538.95 297.96 538.96 298.36 539.01 298.76 539.09 299.15 539.21 299.54 539.35 299.93 539.53 300.31 539.74 300.68 539.98 301.04 540.25 301.39 540.54 301.73 540.87 302.06 541.22 302.37 541.59 302.67 541.99 302.95 542.41 303.22 542.85 303.46 543.32 303.69 543.8 303.9 544.29 304.09 544.8 304.26 545.33 304.41 545.87 304.53 546.41 304.64 546.96 304.72 547.52 304.78 548.08 304.81 548.65 304.82 549.21 304.81 549.77 304.78 550.33 304.72 550.88 304.64 551.43 304.53 551.97 304.41 552.49 304.26 553 304.09 553.5 303.9 553.98 303.69 554.44 303.46 554.88 303.22 555.3 302.95 555.7 302.67 556.08 302.37 556.43 302.06 556.75 301.73 557.05 301.39 557.32 301.04 557.56 300.68 557.76 300.31 557.94 299.93 558.09 299.54 558.2 299.15 558.28 298.76 558.33 298.36 558.35 297.96 558.33 297.56 558.28 297.17 558.2 296.77 558.09 296.38 557.94 295.99 557.76 295.62 557.56 295.25 557.32 294.88 557.05 294.53 556.75 294.19 556.43 293.87 556.08 293.55 555.7 293.25 555.3 292.97 554.88 292.71 554.44 292.46 553.98 292.23 553.5 292.02 553 291.83 552.49 291.66 551.97 291.51 551.43 291.39 550.88 291.29 550.33 291.21 549.77 291.15 549.21 291.11 548.65 291.1"/><path class="a" d="M541.07,293.67a12.24,12.24,0,0,0,15.15,0"/><path class="a" d="M180,301.05a8.72,8.72,0,0,0,9.7-6.86"/><path class="a" d="M121.75,294.19a8.6,8.6,0,0,0,9.7,6.86"/><line class="a" x1="179.96" y1="301.05" x2="131.45" y2="301.05"/><path class="a" d="M432.22,384.61a9.7,9.7,0,0,0-9.7-9.7"/><path class="a" d="M431.09,368.54l-1,0-1,0-2.12-.07-2.18,0-1.11,0h-1.13"/><line class="a" x1="422.52" y1="368.34" x2="422.36" y2="368.34"/><line class="a" x1="325.65" y1="368.34" x2="325.49" y2="368.34"/><path class="a" d="M325.49,374.91a9.7,9.7,0,0,0-9.7,9.7"/><path class="a" d="M325.49,368.34h-2.26l-1.09,0-1.1,0-2.09.07-1,0-1,0"/><line class="a" x1="439.01" y1="411.29" x2="431.22" y2="411.29"/><line class="a" x1="432.22" y1="408.86" x2="431.22" y2="411.29"/><line class="a" x1="432.22" y1="408.86" x2="440.73" y2="408.86"/><line class="a" x1="432.22" y1="408.86" x2="432.22" y2="384.61"/><line class="a" x1="315.79" y1="408.86" x2="325.49" y2="408.86"/><line class="a" x1="422.52" y1="408.86" x2="432.22" y2="408.86"/><line class="a" x1="431.22" y1="411.29" x2="422.52" y2="411.29"/><line class="a" x1="325.49" y1="411.29" x2="316.8" y2="411.29"/><line class="a" x1="315.79" y1="408.86" x2="316.8" y2="411.29"/><line class="a" x1="315.79" y1="384.61" x2="315.79" y2="408.86"/><line class="a" x1="307.29" y1="408.86" x2="315.79" y2="408.86"/><line class="a" x1="316.8" y1="411.29" x2="309" y2="411.29"/><line class="a" x1="213.92" y1="408.86" x2="222.42" y2="408.86"/><line class="a" x1="220.71" y1="411.29" x2="212.91" y2="411.29"/><line class="a" x1="213.92" y1="408.86" x2="212.91" y2="411.29"/><line class="a" x1="213.92" y1="408.86" x2="213.92" y2="384.61"/><path class="a" d="M213.92,384.61a9.7,9.7,0,0,0-9.7-9.7"/><path class="a" d="M107.19,374.91a9.7,9.7,0,0,0-9.7,9.7"/><line class="a" x1="97.49" y1="408.86" x2="107.19" y2="408.86"/><line class="a" x1="204.22" y1="408.86" x2="213.92" y2="408.86"/><line class="a" x1="97.49" y1="384.61" x2="97.49" y2="408.86"/><line class="a" x1="212.91" y1="411.29" x2="204.22" y2="411.29"/><line class="a" x1="107.19" y1="411.29" x2="98.5" y2="411.29"/><line class="a" x1="97.49" y1="408.86" x2="98.5" y2="411.29"/><line class="a" x1="88.98" y1="408.86" x2="97.49" y2="408.86"/><line class="a" x1="98.5" y1="411.29" x2="90.7" y2="411.29"/><line class="a" x1="597.16" y1="331.87" x2="597.16" y2="325.01"/><line class="a" x1="599.58" y1="323.29" x2="599.58" y2="331.87"/><line class="a" x1="500.14" y1="325.01" x2="500.14" y2="331.87"/><line class="a" x1="497.71" y1="331.87" x2="497.71" y2="323.29"/><line class="a" x1="204.22" y1="331.87" x2="204.22" y2="325.01"/><line class="a" x1="206.64" y1="323.29" x2="206.64" y2="331.87"/><line class="a" x1="107.19" y1="325.01" x2="107.19" y2="331.87"/><line class="a" x1="104.77" y1="331.87" x2="104.77" y2="323.29"/><path class="a" d="M317.73,367.63h7.76"/><line class="a" x1="317.73" y1="367.63" x2="316.93" y2="368.54"/><path class="a" d="M422.52,367.63h7.76"/><line class="a" x1="430.28" y1="367.63" x2="431.09" y2="368.54"/><line class="a" x1="325.49" y1="367.63" x2="325.9" y2="367.63"/><line class="a" x1="422.11" y1="367.63" x2="422.52" y2="367.63"/><path class="a" d="M436.13,370.06l-.59-.19-.62-.2-1.24-.39-1.27-.38-.62-.17-.7-.19"/><line class="a" x1="436.13" y1="367.63" x2="436.13" y2="370.06"/><path class="a" d="M430.28,367.63h5.85"/><path class="a" d="M316.93,368.54l-.71.19-.62.17-1.29.38-1.23.39-.61.2-.58.19"/><line class="a" x1="311.89" y1="367.63" x2="311.89" y2="370.06"/><path class="a" d="M311.89,367.63h5.84"/><line class="a" x1="440.73" y1="408.86" x2="442.44" y2="408.86"/><line class="a" x1="442.44" y1="411.29" x2="439.01" y2="411.29"/><line class="a" x1="305.57" y1="408.86" x2="307.29" y2="408.86"/><line class="a" x1="309" y1="411.29" x2="305.57" y2="411.29"/><line class="a" x1="222.42" y1="408.86" x2="224.14" y2="408.86"/><line class="a" x1="224.14" y1="411.29" x2="220.71" y2="411.29"/><line class="a" x1="87.27" y1="408.86" x2="88.98" y2="408.86"/><line class="a" x1="90.7" y1="411.29" x2="87.27" y2="411.29"/><line class="a" x1="468.6" y1="370.06" x2="436.13" y2="370.06"/><path class="a" d="M468.6,370.06a31.54,31.54,0,0,0,31.54-31.54"/><line class="a" x1="500.14" y1="331.87" x2="500.14" y2="338.52"/><line class="a" x1="597.16" y1="350.89" x2="597.16" y2="331.87"/><line class="a" x1="539.19" y1="408.86" x2="597.16" y2="350.89"/><line class="a" x1="442.44" y1="408.86" x2="539.19" y2="408.86"/><line class="a" x1="436.13" y1="367.63" x2="468.6" y2="367.63"/><line class="a" x1="311.89" y1="370.06" x2="235.75" y2="370.06"/><line class="a" x1="235.75" y1="367.63" x2="311.89" y2="367.63"/><line class="a" x1="41.7" y1="408.86" x2="87.27" y2="408.86"/><line class="a" x1="75.66" y1="370.06" x2="41.7" y2="370.06"/><path class="a" d="M75.66,370.06a31.53,31.53,0,0,0,31.53-31.54"/><line class="a" x1="107.19" y1="331.87" x2="107.19" y2="338.52"/><line class="a" x1="204.22" y1="338.52" x2="204.22" y2="331.87"/><path class="a" d="M204.22,338.52a31.53,31.53,0,0,0,31.53,31.54"/><line class="a" x1="224.14" y1="408.86" x2="305.57" y2="408.86"/><line class="a" x1="599.58" y1="351.9" x2="597.16" y2="350.89"/><line class="a" x1="599.58" y1="331.87" x2="599.58" y2="351.9"/><line class="a" x1="599.58" y1="372.48" x2="560.78" y2="411.29"/><line class="a" x1="539.19" y1="408.86" x2="540.19" y2="411.29"/><line class="a" x1="560.78" y1="411.29" x2="540.19" y2="411.29"/><line class="a" x1="599.58" y1="351.9" x2="599.58" y2="372.48"/><line class="a" x1="540.19" y1="411.29" x2="442.44" y2="411.29"/><path class="a" d="M468.6,367.63a29.11,29.11,0,0,0,29.11-29.11"/><line class="a" x1="497.71" y1="338.52" x2="497.71" y2="331.87"/><line class="a" x1="305.57" y1="411.29" x2="224.14" y2="411.29"/><path class="a" d="M206.64,338.52a29.11,29.11,0,0,0,29.11,29.11"/><line class="a" x1="206.64" y1="331.87" x2="206.64" y2="338.52"/><path class="a" d="M75.66,367.63a29.11,29.11,0,0,0,29.11-29.11"/><line class="a" x1="104.77" y1="338.52" x2="104.77" y2="331.87"/><line class="a" x1="87.27" y1="411.29" x2="41.7" y2="411.29"/><line class="a" x1="41.7" y1="367.63" x2="75.66" y2="367.63"/><line class="a" x1="32" y1="408.86" x2="41.7" y2="408.86"/><line class="a" x1="32" y1="408.86" x2="34.43" y2="411.29"/><line class="a" x1="41.7" y1="411.29" x2="34.43" y2="411.29"/><line class="a" x1="41.7" y1="370.06" x2="32" y2="370.06"/><line class="a" x1="32" y1="408.86" x2="32" y2="370.06"/><line class="a" x1="34.43" y1="367.63" x2="32" y2="370.06"/><line class="a" x1="34.43" y1="367.63" x2="41.7" y2="367.63"/><line class="a" x1="276.74" y1="411.29" x2="276.74" y2="420.99"/><line class="a" x1="271.89" y1="420.99" x2="276.74" y2="420.99"/><line class="a" x1="274.31" y1="423.42" x2="271.89" y2="423.42"/><line class="a" x1="274.31" y1="423.42" x2="276.74" y2="420.99"/><line class="a" x1="257.82" y1="420.99" x2="271.89" y2="420.99"/><line class="a" x1="271.89" y1="423.42" x2="257.82" y2="423.42"/><line class="a" x1="257.82" y1="423.42" x2="255.4" y2="423.42"/><line class="a" x1="252.97" y1="420.99" x2="255.4" y2="423.42"/><line class="a" x1="252.97" y1="420.99" x2="257.82" y2="420.99"/><line class="a" x1="252.97" y1="420.99" x2="252.97" y2="411.29"/><line class="a" x1="322.83" y1="421.58" x2="325.49" y2="424.24"/><line class="a" x1="322.83" y1="421.58" x2="325.49" y2="421.58"/><line class="a" x1="422.52" y1="421.58" x2="425.18" y2="421.58"/><line class="a" x1="422.52" y1="424.24" x2="425.18" y2="421.58"/><line class="a" x1="415.31" y1="437.97" x2="408.8" y2="437.97"/><line class="a" x1="408.8" y1="437.97" x2="395.97" y2="437.97"/><line class="a" x1="395.97" y1="437.97" x2="389.46" y2="437.97"/><line class="a" x1="358.56" y1="437.97" x2="352.04" y2="437.97"/><line class="a" x1="352.04" y1="437.97" x2="339.22" y2="437.97"/><line class="a" x1="339.22" y1="437.97" x2="332.7" y2="437.97"/><line class="a" x1="104.53" y1="421.58" x2="107.19" y2="424.24"/><line class="a" x1="104.53" y1="421.58" x2="107.19" y2="421.58"/><line class="a" x1="204.22" y1="421.58" x2="206.88" y2="421.58"/><line class="a" x1="204.22" y1="424.24" x2="206.88" y2="421.58"/><line class="a" x1="197.01" y1="437.97" x2="190.49" y2="437.97"/><line class="a" x1="190.49" y1="437.97" x2="177.67" y2="437.97"/><line class="a" x1="177.67" y1="437.97" x2="171.15" y2="437.97"/><line class="a" x1="140.25" y1="437.97" x2="133.74" y2="437.97"/><line class="a" x1="133.74" y1="437.97" x2="120.91" y2="437.97"/><line class="a" x1="120.91" y1="437.97" x2="114.4" y2="437.97"/><line class="a" x1="425.18" y1="421.58" x2="422.52" y2="418.92"/><line class="a" x1="325.49" y1="418.92" x2="322.83" y2="421.58"/><line class="a" x1="206.88" y1="421.58" x2="204.22" y2="418.92"/><line class="a" x1="107.19" y1="418.92" x2="104.53" y2="421.58"/><path class="a" d="M422,437.49l.54,0,.54-.05c.2,0,.41-.05.61-.09l.45-.09.6-.17a3.66,3.66,0,0,0,.43-.15,5.83,5.83,0,0,0,.58-.23l.41-.2c.19-.09.37-.19.54-.29l.4-.25c.17-.11.33-.23.5-.36l.36-.29c.13-.11.27-.23.4-.36l.38-.38.36-.41a1.92,1.92,0,0,0,.16-.21l.17-.21"/><line class="a" x1="417.67" y1="437.49" x2="421.95" y2="437.49"/><line class="a" x1="421.95" y1="437.49" x2="421.61" y2="437.97"/><line class="a" x1="421.61" y1="437.97" x2="415.31" y2="437.97"/><line class="a" x1="326.06" y1="437.49" x2="330.35" y2="437.49"/><line class="a" x1="326.06" y1="437.49" x2="326.4" y2="437.97"/><line class="a" x1="332.7" y1="437.97" x2="326.4" y2="437.97"/><path class="a" d="M318.63,433.73l.27.34c.13.17.28.33.42.49l.38.38c.13.13.27.25.4.36l.43.34c.14.11.29.21.44.31a5.58,5.58,0,0,0,.52.32l.41.22a5.69,5.69,0,0,0,.56.26l.43.17.58.2.45.12.61.12.45.06.54.05.54,0"/><path class="a" d="M203.65,437.49l.54,0,.54-.05.61-.09.45-.09.59-.17a3.26,3.26,0,0,0,.44-.15c.19-.07.38-.14.57-.23l.42-.2.54-.29.39-.25q.25-.17.51-.36l.36-.29c.13-.11.27-.23.4-.36l.38-.38c.12-.13.24-.27.35-.41a1.2,1.2,0,0,0,.17-.21l.17-.21"/><line class="a" x1="199.36" y1="437.49" x2="203.65" y2="437.49"/><line class="a" x1="203.65" y1="437.49" x2="203.31" y2="437.97"/><line class="a" x1="203.31" y1="437.97" x2="197.01" y2="437.97"/><line class="a" x1="107.76" y1="437.49" x2="112.04" y2="437.49"/><path class="a" d="M100.33,433.73l.27.34c.13.17.28.33.42.49l.38.38c.13.13.27.25.4.36l.42.34.44.31c.18.12.35.22.53.32s.27.15.41.22a5.69,5.69,0,0,0,.56.26l.43.17.58.2.45.12.6.12.46.06.54.05.54,0"/><line class="a" x1="107.76" y1="437.49" x2="108.1" y2="437.97"/><line class="a" x1="114.4" y1="437.97" x2="108.1" y2="437.97"/><line class="a" x1="389.46" y1="437.97" x2="384.47" y2="437.97"/><line class="a" x1="363.54" y1="437.97" x2="358.56" y2="437.97"/><line class="a" x1="171.15" y1="437.97" x2="166.17" y2="437.97"/><line class="a" x1="145.24" y1="437.97" x2="140.25" y2="437.97"/><line class="a" x1="384.47" y1="437.97" x2="377.26" y2="437.97"/><line class="a" x1="370.75" y1="437.97" x2="363.54" y2="437.97"/><line class="a" x1="166.17" y1="437.97" x2="158.96" y2="437.97"/><line class="a" x1="152.45" y1="437.97" x2="145.24" y2="437.97"/><path class="a" d="M429.43,434c-.12.15-.23.3-.35.44s-.25.29-.38.43a10,10,0,0,1-.82.78c-.3.25-.6.48-.91.69a10.82,10.82,0,0,1-1,.57,9.94,9.94,0,0,1-2.13.78l-.56.11c-.18,0-.37.06-.56.09l-.56,0h-.57"/><path class="a" d="M326.4,438h-.56l-.57,0c-.19,0-.38-.05-.56-.09l-.56-.11a11.3,11.3,0,0,1-1.09-.33,10.53,10.53,0,0,1-1-.45,10.82,10.82,0,0,1-1-.57c-.31-.21-.61-.44-.91-.69a10,10,0,0,1-.82-.78l-.38-.43c-.12-.14-.23-.29-.34-.44"/><path class="a" d="M211.12,434c-.11.15-.22.3-.34.44l-.38.43a10,10,0,0,1-.82.78c-.3.25-.6.48-.91.69a10.82,10.82,0,0,1-1,.57,10.53,10.53,0,0,1-1,.45,11.3,11.3,0,0,1-1.09.33l-.56.11c-.18,0-.37.06-.56.09l-.56,0h-.57"/><path class="a" d="M108.1,438h-.57l-.56,0c-.19,0-.38-.05-.56-.09l-.56-.11a9.94,9.94,0,0,1-2.13-.78,10.82,10.82,0,0,1-1-.57c-.31-.21-.61-.44-.91-.69a10,10,0,0,1-.82-.78c-.13-.14-.26-.28-.38-.43s-.23-.29-.35-.44"/><line class="a" x1="377.26" y1="437.97" x2="370.75" y2="437.97"/><line class="a" x1="158.96" y1="437.97" x2="152.45" y2="437.97"/><path class="a" d="M430,432.68l.33-.63.34-.66.72-1.37.75-1.44.78-1.51.8-1.55.83-1.59.83-1.61.43-.81.42-.81"/><path class="a" d="M429.38,433.73l.33-.5.3-.55"/><path class="a" d="M430.13,432.92c-.06.09-.11.19-.17.29l-.17.28-.18.27-.18.26"/><path class="a" d="M318,432.68c.1.19.2.37.31.55s.21.34.32.5"/><path class="a" d="M318.59,434l-.19-.26-.18-.27-.17-.28-.16-.29"/><path class="a" d="M311.77,420.7l.43.81.42.81.83,1.61.83,1.59.81,1.55.78,1.51.75,1.44.71,1.37.34.66.33.63"/><path class="a" d="M211.71,432.68l.33-.63.34-.66.71-1.37.75-1.44.78-1.51.81-1.55.83-1.59.83-1.61.42-.81.43-.81"/><path class="a" d="M211.08,433.73c.11-.16.22-.33.32-.5s.21-.36.31-.55"/><path class="a" d="M211.82,432.92l-.16.29-.17.28-.18.27-.19.26"/><path class="a" d="M99.7,432.68l.3.55.33.5"/><path class="a" d="M100.28,434l-.18-.26-.18-.27-.17-.28c-.06-.1-.11-.2-.17-.29"/><path class="a" d="M93.47,420.7l.42.81.43.81.83,1.61.83,1.59.8,1.55.78,1.51.75,1.44.72,1.37.34.66.33.63"/><path class="a" d="M436.66,420.93l-.44.81-.44.81-.88,1.62-.87,1.58-.84,1.56-.82,1.5-.79,1.44-.75,1.37-.36.66-.34.64"/><path class="a" d="M218.36,420.93l-.44.81-.44.81-.88,1.62-.87,1.58-.85,1.56-.81,1.5-.79,1.44-.75,1.37-.36.66-.35.64"/><path class="a" d="M317.89,432.92l-.35-.64-.36-.66-.75-1.37-.78-1.44-.82-1.5-.85-1.56-.87-1.58-.88-1.62-.44-.81-.44-.81"/><path class="a" d="M99.58,432.92l-.34-.64-.36-.66-.75-1.37-.79-1.44-.82-1.5-.84-1.56-.87-1.58-.88-1.62-.44-.81-.44-.81"/><path class="a" d="M444.58,411.29a10.19,10.19,0,0,0-5.84,4.82"/><path class="a" d="M447.68,411.29a9.7,9.7,0,0,0-8.52,5.06"/><path class="a" d="M309.27,416.11a10.2,10.2,0,0,0-5.83-4.82"/><path class="a" d="M308.85,416.35a9.7,9.7,0,0,0-8.52-5.06"/><path class="a" d="M226.27,411.29a10.2,10.2,0,0,0-5.83,4.82"/><path class="a" d="M229.38,411.29a9.7,9.7,0,0,0-8.52,5.06"/><path class="a" d="M91,416.11a10.19,10.19,0,0,0-5.84-4.82"/><path class="a" d="M90.55,416.35A9.7,9.7,0,0,0,82,411.29"/><line class="a" x1="436.24" y1="420.7" x2="438.74" y2="416.11"/><line class="a" x1="439.16" y1="416.35" x2="436.66" y2="420.93"/><line class="a" x1="309.27" y1="416.11" x2="311.77" y2="420.7"/><line class="a" x1="311.35" y1="420.93" x2="308.85" y2="416.35"/><line class="a" x1="217.94" y1="420.7" x2="220.44" y2="416.11"/><line class="a" x1="220.86" y1="416.35" x2="218.36" y2="420.93"/><line class="a" x1="90.97" y1="416.11" x2="93.47" y2="420.7"/><line class="a" x1="93.05" y1="420.93" x2="90.55" y2="416.35"/><path class="a" d="M137,393.83A18.68,18.68,0,1,1,155.7,412.5,18.67,18.67,0,0,1,137,393.83Z"/><path class="a" d="M355.33,393.83A18.68,18.68,0,1,1,374,412.5a18.68,18.68,0,0,1-18.68-18.67Z"/><line class="a" x1="199.43" y1="418.53" x2="204.22" y2="426.49"/><line class="a" x1="201.79" y1="414.37" x2="204.22" y2="414.37"/><line class="a" x1="199.36" y1="367.15" x2="199.36" y2="364.72"/><line class="a" x1="201.79" y1="369.57" x2="204.22" y2="369.57"/><line class="a" x1="184.57" y1="427.44" x2="190.59" y2="437.49"/><line class="a" x1="112.04" y1="367.15" x2="112.04" y2="364.72"/><line class="a" x1="174.59" y1="430.21" x2="174.59" y2="437.49"/><line class="a" x1="133.87" y1="392.37" x2="132.9" y2="392.37"/><line class="a" x1="177.53" y1="392.37" x2="178.5" y2="392.37"/><line class="a" x1="178.5" y1="395.28" x2="177.53" y2="395.28"/><line class="a" x1="132.9" y1="395.28" x2="133.87" y2="395.28"/><line class="a" x1="136.82" y1="430.21" x2="136.82" y2="437.49"/><line class="a" x1="126.84" y1="427.44" x2="120.81" y2="437.49"/><line class="a" x1="111.97" y1="418.53" x2="107.19" y2="426.49"/><line class="a" x1="109.62" y1="369.57" x2="107.19" y2="369.57"/><line class="a" x1="109.62" y1="414.37" x2="107.19" y2="414.37"/><line class="a" x1="417.74" y1="418.53" x2="422.52" y2="426.49"/><line class="a" x1="420.09" y1="414.37" x2="422.52" y2="414.37"/><line class="a" x1="417.67" y1="367.15" x2="417.67" y2="364.72"/><line class="a" x1="420.09" y1="369.57" x2="422.52" y2="369.57"/><line class="a" x1="402.87" y1="427.44" x2="408.9" y2="437.49"/><line class="a" x1="330.35" y1="367.15" x2="330.35" y2="364.72"/><line class="a" x1="392.89" y1="430.21" x2="392.89" y2="437.49"/><line class="a" x1="395.84" y1="392.37" x2="396.81" y2="392.37"/><line class="a" x1="396.81" y1="395.28" x2="395.84" y2="395.28"/><line class="a" x1="351.21" y1="395.28" x2="352.18" y2="395.28"/><line class="a" x1="352.18" y1="392.37" x2="351.21" y2="392.37"/><line class="a" x1="355.12" y1="430.21" x2="355.12" y2="437.49"/><line class="a" x1="345.14" y1="427.44" x2="339.12" y2="437.49"/><line class="a" x1="330.28" y1="418.53" x2="325.49" y2="426.49"/><line class="a" x1="327.92" y1="369.57" x2="325.49" y2="369.57"/><line class="a" x1="327.92" y1="414.37" x2="325.49" y2="414.37"/><line class="a" x1="206.64" y1="186.63" x2="204.22" y2="186.63"/><line class="a" x1="206.64" y1="184.99" x2="204.22" y2="183.35"/><line class="a" x1="107.19" y1="183.35" x2="204.22" y2="183.35"/><line class="a" x1="204.22" y1="186.63" x2="107.19" y2="186.63"/><line class="a" x1="107.19" y1="186.63" x2="104.77" y2="186.63"/><line class="a" x1="107.19" y1="183.35" x2="104.77" y2="184.99"/><line class="a" x1="204.22" y1="128.1" x2="107.19" y2="128.1"/><line class="a" x1="206.64" y1="129.74" x2="204.22" y2="128.1"/><line class="a" x1="107.19" y1="128.1" x2="104.77" y2="129.74"/><line class="a" x1="599.58" y1="186.63" x2="597.16" y2="186.63"/><line class="a" x1="599.58" y1="184.99" x2="597.16" y2="183.35"/><line class="a" x1="500.14" y1="183.35" x2="597.16" y2="183.35"/><line class="a" x1="597.16" y1="186.63" x2="500.14" y2="186.63"/><line class="a" x1="500.14" y1="186.63" x2="497.71" y2="186.63"/><line class="a" x1="500.14" y1="183.35" x2="497.71" y2="184.99"/><line class="a" x1="599.58" y1="129.74" x2="597.16" y2="128.1"/><line class="a" x1="597.16" y1="128.1" x2="500.14" y2="128.1"/><line class="a" x1="500.14" y1="128.1" x2="497.71" y2="129.74"/><line class="a" x1="500.14" y1="253.07" x2="597.16" y2="253.07"/><line class="a" x1="599.58" y1="254.79" x2="597.16" y2="256.5"/><line class="a" x1="599.58" y1="253.07" x2="597.16" y2="253.07"/><line class="a" x1="597.16" y1="256.5" x2="500.14" y2="256.5"/><line class="a" x1="497.71" y1="253.07" x2="500.14" y2="253.07"/><line class="a" x1="497.71" y1="254.79" x2="500.14" y2="256.5"/><line class="a" x1="107.19" y1="253.07" x2="204.22" y2="253.07"/><line class="a" x1="204.22" y1="256.5" x2="107.19" y2="256.5"/><line class="a" x1="206.64" y1="253.07" x2="204.22" y2="253.07"/><line class="a" x1="206.64" y1="254.79" x2="204.22" y2="256.5"/><line class="a" x1="104.77" y1="253.07" x2="107.19" y2="253.07"/><line class="a" x1="104.77" y1="254.79" x2="107.19" y2="256.5"/><line class="a" x1="500.14" y1="325.01" x2="597.16" y2="325.01"/><line class="a" x1="599.58" y1="323.29" x2="597.16" y2="325.01"/><line class="a" x1="497.71" y1="323.29" x2="500.14" y2="325.01"/><line class="a" x1="107.19" y1="325.01" x2="204.22" y2="325.01"/><line class="a" x1="206.64" y1="323.29" x2="204.22" y2="325.01"/><line class="a" x1="104.77" y1="323.29" x2="107.19" y2="325.01"/><line class="a" x1="189.66" y1="273.61" x2="194.51" y2="277.04"/><line class="a" x1="116.9" y1="277.04" x2="121.75" y2="273.61"/><line class="a" x1="572.18" y1="279.01" x2="571.86" y2="279.14"/><line class="a" x1="509.11" y1="279.01" x2="508.8" y2="279.14"/><line class="a" x1="189.66" y1="294.19" x2="194.51" y2="297.62"/><line class="a" x1="116.9" y1="297.62" x2="121.75" y2="294.19"/><line class="a" x1="179.96" y1="301.05" x2="179.96" y2="307.91"/><line class="a" x1="131.45" y1="307.91" x2="131.45" y2="301.05"/><line class="a" x1="179.96" y1="294.19" x2="179.96" y2="301.05"/><line class="a" x1="131.45" y1="301.05" x2="131.45" y2="294.19"/><line class="a" x1="432.22" y1="384.61" x2="440.73" y2="384.61"/><line class="a" x1="422.52" y1="369.57" x2="422.52" y2="368.34"/><path class="a" d="M440.73,384.61a18.22,18.22,0,0,0-9.64-16.07"/><line class="a" x1="325.49" y1="369.57" x2="325.49" y2="368.34"/><line class="a" x1="315.79" y1="384.61" x2="307.29" y2="384.61"/><path class="a" d="M316.93,368.54a18.2,18.2,0,0,0-9.64,16.07"/><line class="a" x1="439.01" y1="411.29" x2="440.73" y2="408.86"/><line class="a" x1="440.73" y1="408.86" x2="440.73" y2="384.61"/><line class="a" x1="307.29" y1="408.86" x2="309" y2="411.29"/><line class="a" x1="307.29" y1="384.61" x2="307.29" y2="408.86"/><line class="a" x1="222.42" y1="408.86" x2="220.71" y2="411.29"/><line class="a" x1="213.92" y1="384.61" x2="222.42" y2="384.61"/><line class="a" x1="222.42" y1="408.86" x2="222.42" y2="384.61"/><line class="a" x1="204.22" y1="369.57" x2="204.22" y2="366.4"/><path class="a" d="M222.42,384.61a18.2,18.2,0,0,0-18.2-18.21"/><line class="a" x1="107.19" y1="369.57" x2="107.19" y2="366.4"/><line class="a" x1="204.22" y1="366.4" x2="203.04" y2="366.4"/><line class="a" x1="108.37" y1="366.4" x2="107.19" y2="366.4"/><line class="a" x1="97.49" y1="384.61" x2="88.98" y2="384.61"/><path class="a" d="M107.19,366.4A18.21,18.21,0,0,0,89,384.61"/><line class="a" x1="88.98" y1="384.61" x2="88.98" y2="408.86"/><line class="a" x1="88.98" y1="408.86" x2="90.7" y2="411.29"/><line class="a" x1="599.58" y1="331.87" x2="597.16" y2="331.87"/><line class="a" x1="597.16" y1="331.87" x2="500.14" y2="331.87"/><line class="a" x1="497.71" y1="331.87" x2="500.14" y2="331.87"/><line class="a" x1="206.64" y1="331.87" x2="204.22" y2="331.87"/><line class="a" x1="204.22" y1="331.87" x2="107.19" y2="331.87"/><line class="a" x1="104.77" y1="331.87" x2="107.19" y2="331.87"/><line class="a" x1="325.49" y1="367.63" x2="325.49" y2="368.34"/><line class="a" x1="422.52" y1="367.63" x2="422.52" y2="368.34"/><line class="a" x1="440.73" y1="384.61" x2="442.44" y2="384.61"/><path class="a" d="M442.44,384.61a19.93,19.93,0,0,0-6.31-14.55"/><line class="a" x1="307.29" y1="384.61" x2="305.57" y2="384.61"/><path class="a" d="M311.89,370.06a19.9,19.9,0,0,0-6.32,14.55"/><line class="a" x1="442.44" y1="384.61" x2="442.44" y2="408.86"/><line class="a" x1="442.44" y1="411.29" x2="442.44" y2="408.86"/><line class="a" x1="305.57" y1="408.86" x2="305.57" y2="384.61"/><line class="a" x1="305.57" y1="408.86" x2="305.57" y2="411.29"/><line class="a" x1="224.14" y1="408.86" x2="224.14" y2="411.29"/><line class="a" x1="222.42" y1="384.61" x2="224.14" y2="384.61"/><line class="a" x1="224.14" y1="384.61" x2="224.14" y2="408.86"/><line class="a" x1="204.22" y1="366.4" x2="204.22" y2="364.69"/><path class="a" d="M224.14,384.61a19.92,19.92,0,0,0-19.92-19.92"/><line class="a" x1="107.19" y1="366.4" x2="107.19" y2="364.69"/><line class="a" x1="107.19" y1="364.69" x2="204.22" y2="364.69"/><line class="a" x1="88.98" y1="384.61" x2="87.27" y2="384.61"/><path class="a" d="M107.19,364.69a19.92,19.92,0,0,0-19.92,19.92"/><line class="a" x1="87.27" y1="408.86" x2="87.27" y2="411.29"/><line class="a" x1="87.27" y1="408.86" x2="87.27" y2="384.61"/><line class="a" x1="468.6" y1="367.63" x2="468.6" y2="370.06"/><line class="a" x1="235.75" y1="367.63" x2="235.75" y2="370.06"/><line class="a" x1="41.7" y1="370.06" x2="41.7" y2="408.86"/><line class="a" x1="497.71" y1="338.52" x2="500.14" y2="338.52"/><line class="a" x1="206.64" y1="338.52" x2="204.22" y2="338.52"/><line class="a" x1="104.77" y1="338.52" x2="107.19" y2="338.52"/><line class="a" x1="75.66" y1="367.63" x2="75.66" y2="370.06"/><line class="a" x1="41.7" y1="408.86" x2="41.7" y2="411.29"/><line class="a" x1="41.7" y1="367.63" x2="41.7" y2="370.06"/><line class="a" x1="271.89" y1="420.99" x2="271.89" y2="411.29"/><line class="a" x1="271.89" y1="423.42" x2="271.89" y2="420.99"/><line class="a" x1="257.82" y1="411.29" x2="257.82" y2="420.99"/><line class="a" x1="257.82" y1="423.42" x2="257.82" y2="420.99"/><line class="a" x1="415.66" y1="437.49" x2="415.31" y2="437.97"/><line class="a" x1="408.8" y1="437.49" x2="408.8" y2="437.97"/><line class="a" x1="395.97" y1="437.49" x2="395.97" y2="437.97"/><line class="a" x1="389.11" y1="437.49" x2="389.46" y2="437.97"/><line class="a" x1="358.9" y1="437.49" x2="358.56" y2="437.97"/><line class="a" x1="352.04" y1="437.49" x2="352.04" y2="437.97"/><line class="a" x1="339.22" y1="437.49" x2="339.22" y2="437.97"/><line class="a" x1="332.36" y1="437.49" x2="332.7" y2="437.97"/><line class="a" x1="197.36" y1="437.49" x2="197.01" y2="437.97"/><line class="a" x1="190.49" y1="437.49" x2="190.49" y2="437.97"/><line class="a" x1="177.67" y1="437.49" x2="177.67" y2="437.97"/><line class="a" x1="170.81" y1="437.49" x2="171.15" y2="437.97"/><line class="a" x1="140.6" y1="437.49" x2="140.25" y2="437.97"/><line class="a" x1="133.74" y1="437.49" x2="133.74" y2="437.97"/><line class="a" x1="120.91" y1="437.49" x2="120.91" y2="437.97"/><line class="a" x1="114.05" y1="437.49" x2="114.4" y2="437.97"/><line class="a" x1="429.38" y1="433.73" x2="429.38" y2="411.29"/><line class="a" x1="318.63" y1="411.29" x2="318.63" y2="433.73"/><line class="a" x1="211.08" y1="433.73" x2="211.08" y2="411.29"/><line class="a" x1="100.33" y1="411.29" x2="100.33" y2="433.73"/><line class="a" x1="384.12" y1="437.49" x2="384.47" y2="437.97"/><line class="a" x1="363.89" y1="437.49" x2="363.54" y2="437.97"/><line class="a" x1="165.82" y1="437.49" x2="166.17" y2="437.97"/><line class="a" x1="145.59" y1="437.49" x2="145.24" y2="437.97"/><line class="a" x1="377.26" y1="437.49" x2="377.26" y2="437.97"/><line class="a" x1="370.75" y1="437.49" x2="370.75" y2="437.97"/><line class="a" x1="158.96" y1="437.49" x2="158.96" y2="437.97"/><line class="a" x1="152.45" y1="437.49" x2="152.45" y2="437.97"/><line class="a" x1="429.38" y1="433.73" x2="429.43" y2="434.02"/><line class="a" x1="318.63" y1="433.73" x2="318.59" y2="434.02"/><line class="a" x1="211.08" y1="433.73" x2="211.12" y2="434.02"/><line class="a" x1="100.33" y1="433.73" x2="100.28" y2="434.02"/><line class="a" x1="436.24" y1="411.29" x2="436.24" y2="420.7"/><line class="a" x1="430.01" y1="432.68" x2="430.13" y2="432.92"/><line class="a" x1="318" y1="432.68" x2="317.89" y2="432.92"/><line class="a" x1="311.77" y1="420.7" x2="311.77" y2="411.29"/><line class="a" x1="217.94" y1="411.29" x2="217.94" y2="420.7"/><line class="a" x1="211.71" y1="432.68" x2="211.82" y2="432.92"/><line class="a" x1="99.7" y1="432.68" x2="99.58" y2="432.92"/><line class="a" x1="93.47" y1="420.7" x2="93.47" y2="411.29"/><line class="a" x1="436.24" y1="420.7" x2="436.66" y2="420.93"/><line class="a" x1="217.94" y1="420.7" x2="218.36" y2="420.93"/><line class="a" x1="311.77" y1="420.7" x2="311.35" y2="420.93"/><line class="a" x1="93.47" y1="420.7" x2="93.05" y2="420.93"/><line class="a" x1="438.74" y1="416.11" x2="439.16" y2="416.35"/><line class="a" x1="309.27" y1="416.11" x2="308.85" y2="416.35"/><line class="a" x1="220.44" y1="416.11" x2="220.86" y2="416.35"/><line class="a" x1="90.97" y1="416.11" x2="90.55" y2="416.35"/><line class="b" x1="113.63" y1="66.53" x2="197.78" y2="66.53"/><polygon points="115.61 69.43 104.77 66.53 115.61 63.62 115.61 69.43"/><polygon points="195.8 69.43 206.64 66.53 195.8 63.62 195.8 69.43"/><line class="b" x1="215.5" y1="66.53" x2="488.85" y2="66.53"/><polygon points="217.48 69.43 206.64 66.53 217.48 63.62 217.48 69.43"/><polygon points="486.87 69.43 497.71 66.53 486.87 63.62 486.87 69.43"/><line class="b" x1="506.57" y1="66.53" x2="590.72" y2="66.53"/><polygon points="508.55 69.43 497.71 66.53 508.55 63.62 508.55 69.43"/><polygon points="588.74 69.43 599.58 66.53 588.74 63.62 588.74 69.43"/><line class="b" x1="40.86" y1="557.97" x2="590.72" y2="557.97"/><polygon points="42.84 560.88 32 557.97 42.84 555.07 42.84 560.88"/><polygon points="588.74 560.88 599.58 557.97 588.74 555.07 588.74 560.88"/><line class="b" x1="431.38" y1="497.97" x2="590.72" y2="497.97"/><polygon points="433.36 500.88 422.52 497.97 433.36 495.07 433.36 500.88"/><polygon points="588.74 500.88 599.58 497.97 588.74 495.07 588.74 500.88"/><line class="c" x1="104.77" y1="116.53" x2="104.77" y2="56.53"/><line class="c" x1="206.64" y1="116.53" x2="206.64" y2="56.53"/><line class="c" x1="497.71" y1="116.53" x2="497.71" y2="56.53"/><line class="c" x1="599.58" y1="116.53" x2="599.58" y2="56.53"/><line class="c" x1="422.52" y1="507.97" x2="422.52" y2="447.97"/><line class="c" x1="32" y1="567.97" x2="32" y2="421.29"/><line class="c" x1="599.58" y1="567.97" x2="599.58" y2="382.48"/><path d="M493.5,463v24h-3.31V466.29l-6.41,2.08v-3.31l6.41-2.09Z"/><path d="M499.08,487v-4.43h3.71V487Z"/><path d="M521.51,463v3H511.43v7.2a18.57,18.57,0,0,1,6.51-1,3.59,3.59,0,0,1,3.85,3.81v7.09a3.82,3.82,0,0,1-3.85,3.82h-6.15a3.76,3.76,0,0,1-3.78-3.82V481.8h3.31v.61a1.47,1.47,0,0,0,1.51,1.51h4.11a1.5,1.5,0,0,0,1.54-1.51v-5.54a1.39,1.39,0,0,0-1.54-1.51,11.43,11.43,0,0,0-4,.43c-.83.32-1.51.83-1.51,1.73v.79l-3.31-.22V463Z"/><path d="M527.7,467.4h-1.51V463h3.71v4.43l-2.24,4.39-1.72-.9Zm6.55,0h-1.51V463h3.71v4.43l-2.23,4.39-1.73-.9Z"/><path d="M305,523v24h-3.31V526.29l-6.41,2.08v-3.31l6.41-2.09Z"/><path d="M317.88,523v24h-3.31V526.29l-6.41,2.08v-3.31l6.41-2.09Z"/><path d="M321.41,523h13.93v2.81L327.6,547h-3.42L332,526H321.41Z"/><path d="M349.38,51.69a3.82,3.82,0,0,1-3.85,3.81h-6.22a3.77,3.77,0,0,1-3.79-3.81V35.35a3.77,3.77,0,0,1,3.79-3.82h6a3.78,3.78,0,0,1,3.82,3.82v2.44h-3.31V36.07a1.51,1.51,0,0,0-1.55-1.52h-4a1.47,1.47,0,0,0-1.51,1.52V43a20.7,20.7,0,0,1,6.69-1.26,3.6,3.6,0,0,1,3.85,3.82Zm-10.54-4.32V51a1.47,1.47,0,0,0,1.51,1.51h4.17A1.51,1.51,0,0,0,346.07,51V46.43a1.39,1.39,0,0,0-1.55-1.51,13.16,13.16,0,0,0-4.17.72C339.52,46,338.84,46.47,338.84,47.37Z"/><path d="M354.6,51.69V35.35a3.77,3.77,0,0,1,3.79-3.82H365a3.8,3.8,0,0,1,3.85,3.82V51.69A3.8,3.8,0,0,1,365,55.5h-6.58A3.77,3.77,0,0,1,354.6,51.69Zm10.91-15.62A1.48,1.48,0,0,0,364,34.55h-4.57a1.47,1.47,0,0,0-1.51,1.52V51a1.47,1.47,0,0,0,1.51,1.51H364A1.48,1.48,0,0,0,365.51,51Z"/><path d="M535.25,47.44c0-2.12,1.34-2.81,3.28-3.6,2.7-1.08,3.42-1.37,5.62-2.27.93-.39,1.4-.72,1.4-1.54v-4A1.49,1.49,0,0,0,544,34.55h-3.89a1.48,1.48,0,0,0-1.51,1.52v2.3h-3.31v-3a3.77,3.77,0,0,1,3.78-3.82H545a3.8,3.8,0,0,1,3.85,3.82v5.36c0,1.73-.79,2.48-2.7,3.31-2.45,1-3.06,1.26-6.15,2.59-.9.4-1.44.76-1.44,1.59v4.28H549v3H535.25Z"/><path d="M561.5,31.53v24h-3.31V34.84l-6.41,2.09V33.62l6.41-2.09Z"/><path d="M142.31,47.44c0-2.12,1.33-2.81,3.28-3.6,2.7-1.08,3.42-1.37,5.61-2.27.94-.39,1.41-.72,1.41-1.54v-4a1.49,1.49,0,0,0-1.55-1.52h-3.89a1.48,1.48,0,0,0-1.51,1.52v2.3h-3.31v-3a3.76,3.76,0,0,1,3.78-3.82h5.94a3.8,3.8,0,0,1,3.85,3.82v5.36c0,1.73-.79,2.48-2.7,3.31-2.45,1-3.06,1.26-6.16,2.59-.9.4-1.44.76-1.44,1.59v4.28H156v3H142.31Z"/><path d="M168.56,31.53v24h-3.32V34.84l-6.4,2.09V33.62l6.4-2.09Z"/><path class="a" d="M971.63,414a1.94,1.94,0,0,0,.72-1.52"/><path class="a" d="M972.35,375.15a1.94,1.94,0,0,0-.72-1.52"/><line class="a" x1="932.09" y1="381.7" x2="931.6" y2="381.7"/><line class="a" x1="933.54" y1="405.95" x2="933.79" y2="405.95"/><line class="a" x1="929.66" y1="405.95" x2="930.15" y2="405.95"/><line class="a" x1="928.45" y1="403.91" x2="929.61" y2="405.91"/><line class="a" x1="931.55" y1="381.74" x2="930.36" y2="383.8"/><line class="a" x1="932.27" y1="403.8" x2="933.49" y2="405.91"/><line class="a" x1="929.48" y1="383.85" x2="928.45" y2="382.07"/><line class="a" x1="930.2" y1="405.91" x2="931.39" y2="403.85"/><line class="a" x1="933.36" y1="383.85" x2="932.14" y2="381.74"/><line class="a" x1="933.79" y1="383.8" x2="933.33" y2="383.8"/><line class="a" x1="930.39" y1="383.8" x2="929.45" y2="383.8"/><line class="a" x1="931.36" y1="403.85" x2="932.3" y2="403.85"/><line class="a" x1="843.31" y1="389.46" x2="843.31" y2="379.76"/><line class="a" x1="843.31" y1="399.16" x2="843.31" y2="389.46"/><line class="a" x1="845.01" y1="389.46" x2="845.01" y2="379.76"/><line class="a" x1="845.01" y1="399.16" x2="845.01" y2="389.46"/><line class="a" x1="867.33" y1="389.46" x2="867.33" y2="379.76"/><line class="a" x1="867.33" y1="399.16" x2="867.33" y2="389.46"/><line class="a" x1="869.02" y1="389.46" x2="869.02" y2="379.76"/><line class="a" x1="869.02" y1="399.16" x2="869.02" y2="389.46"/><line class="a" x1="972.35" y1="393.83" x2="972.35" y2="412.5"/><line class="a" x1="972.35" y1="375.15" x2="972.35" y2="393.83"/><path class="a" d="M928.45,382.63l0,.23c0,.14,0,.31.06.49s0,.37.05.57,0,.41,0,.63,0,.46.05.7,0,.51,0,.77l.06.84c0,.3,0,.6.05.91s0,.63.06,1,0,.66.06,1,0,.66,0,1,0,.68.05,1l.06,1c0,.34,0,.68,0,1s0,.7.05,1,0,.71,0,1.06l.06,1c0,.35,0,.69,0,1l.06,1,.06.93c0,.31,0,.6,0,.89s0,.56.05.82,0,.52,0,.76,0,.49.05.71,0,.44.06.65,0,.39.05.57,0,.35.06.5,0,.29.06.41a2.24,2.24,0,0,0,0,.31c0,.09,0,.17,0,.23a.53.53,0,0,0,.06.13s0,0,0,0l.05,0"/><path class="a" d="M932.09,381.7l0,0a.38.38,0,0,1,.05.14c0,.06,0,.14.06.23a2.88,2.88,0,0,1,0,.33q0,.18.06.42c0,.15,0,.31.06.49s0,.37.05.57,0,.41,0,.63,0,.46.05.7,0,.51,0,.77l.06.84c0,.3,0,.6.05.91s0,.63.06,1,0,.66.06,1,0,.66,0,1l.06,1c0,.35,0,.69,0,1s0,.68,0,1,0,.7.05,1,0,.71,0,1.06l.06,1c0,.35,0,.69,0,1l.06,1,.06.93c0,.31,0,.6.05.89s0,.56,0,.82,0,.52,0,.76,0,.49.06.71,0,.44,0,.65,0,.39.05.57,0,.36.06.5l0,.19"/><polyline class="a" points="931.55 381.74 931.6 381.7 931.65 381.74 931.71 381.88 931.76 382.11 931.82 382.44 931.88 382.86 931.93 383.35 931.99 383.92 932.04 384.56 932.09 385.25 932.14 386.02 932.19 386.87 932.25 387.77 932.3 388.73 932.36 389.73 932.42 390.74 932.47 391.76 932.52 392.8 932.57 393.83 932.63 394.87 932.68 395.93 932.73 396.97 932.79 398 932.85 399 932.9 399.93 932.96 400.82 933.01 401.64 933.06 402.4 933.11 403.11 933.16 403.76 933.22 404.33 933.27 404.83 933.33 405.24 933.39 405.55 933.44 405.78 933.49 405.91 933.54 405.95"/><path class="a" d="M928.45,389.19l0,.54c0,.33,0,.66.06,1s0,.68.05,1,0,.69,0,1,0,.68.05,1,0,.7,0,1l.06,1.06c0,.35,0,.7.05,1l.06,1,.06,1c0,.32,0,.63,0,.93s0,.6.05.89,0,.56.06.82,0,.52,0,.76,0,.49.05.71,0,.44,0,.65,0,.39.06.57,0,.35,0,.5,0,.29.06.41,0,.22.06.31a1.14,1.14,0,0,0,0,.23.59.59,0,0,0,.05.13s0,0,0,0"/><path class="a" d="M930.39,383.8a.13.13,0,0,1,.06.05.38.38,0,0,1,.06.14,2.08,2.08,0,0,1,.06.24c0,.09,0,.21.06.33s0,.27.07.43,0,.33.06.51,0,.38.06.59,0,.42.06.65,0,.46,0,.71,0,.52.06.79,0,.56.07.85,0,.59.06.9l.06.94q0,.46.06,1l.06,1,.06,1,.06,1,.06,1,.06,1,.06.93c0,.31,0,.61.07.9s0,.58.06.85,0,.54.06.79,0,.49.06.72,0,.44,0,.65,0,.4.06.58,0,.36.07.51,0,.3.06.43,0,.24.06.34,0,.17.06.23a1,1,0,0,0,.06.14"/><path class="a" d="M929.48,383.86a.53.53,0,0,1,.06.13,2.08,2.08,0,0,1,.06.24c0,.09,0,.21.06.33s0,.27.07.43,0,.33.06.51,0,.38.06.59,0,.42.06.65,0,.46.05.71,0,.52.06.79,0,.56.06.85,0,.59.07.9l.06.94.06,1,.06,1,.06,1,.06,1,.06,1,.06,1,.06.93c0,.31,0,.61.07.9s0,.58.06.85,0,.54.06.79l.06.72c0,.22,0,.44,0,.65s0,.4.06.58,0,.36.07.51,0,.3.06.43,0,.24.06.34,0,.17.06.23a.57.57,0,0,0,.06.15s0,0,.06,0"/><path class="a" d="M933.36,383.86a.53.53,0,0,1,.06.13,2.08,2.08,0,0,1,.06.24c0,.09,0,.21.06.33s.05.27.07.43,0,.33.06.51,0,.38.06.59,0,.42.06.65"/><path class="a" d="M926.54,369.57a11.23,11.23,0,0,0-1-.89"/><line class="a" x1="926.54" y1="369.57" x2="934.08" y2="377.11"/><line class="a" x1="932.37" y1="378.82" x2="928.45" y2="374.91"/><path class="a" d="M923.11,369.57l1-.38,1-.35.45-.16"/><line class="a" x1="971.63" y1="369.57" x2="971.63" y2="367.15"/><line class="a" x1="969.2" y1="364.72" x2="969.2" y2="369.57"/><line class="a" x1="971.63" y1="367.15" x2="969.2" y2="364.72"/><line class="a" x1="934.08" y1="425.1" x2="926.54" y2="432.64"/><path class="a" d="M925.54,433.52a11.19,11.19,0,0,0,1-.88"/><path class="a" d="M925.54,433.52l-1.22-.43c-.41-.14-.81-.3-1.21-.45"/><line class="a" x1="923.11" y1="432.64" x2="932.37" y2="423.38"/><line class="a" x1="936.21" y1="382.25" x2="936.21" y2="419.95"/><path class="a" d="M936.21,382.25a7.23,7.23,0,0,0-2.13-5.14"/><line class="a" x1="969.2" y1="414.37" x2="969.2" y2="369.57"/><path class="a" d="M962.33,426.49q.72-.83,1.41-1.68c.47-.56.92-1.13,1.37-1.71.3-.39.59-.78.88-1.18s.57-.8.84-1.21.52-.83.77-1.25c.15-.27.29-.54.43-.81s.27-.54.39-.83.23-.56.33-.85.18-.58.25-.87a8.6,8.6,0,0,0,.15-.86c0-.29,0-.58.05-.87"/><line class="a" x1="957.07" y1="432.64" x2="962.33" y2="426.49"/><path class="a" d="M934.08,425.1a7.27,7.27,0,0,0,2.13-5.15"/><line class="a" x1="971.63" y1="427.44" x2="971.63" y2="418.53"/><line class="a" x1="955.4" y1="437.49" x2="959.91" y2="437.49"/><path class="a" d="M957.07,432.64c-2.3,2.67-3.05,4.85-1.67,4.85"/><line class="a" x1="925.54" y1="364.72" x2="969.2" y2="364.72"/><line class="a" x1="925.54" y1="364.72" x2="925.54" y2="368.68"/><line class="a" x1="955.4" y1="437.49" x2="925.54" y2="437.49"/><line class="a" x1="925.54" y1="433.52" x2="925.54" y2="437.49"/><line class="a" x1="971.63" y1="418.53" x2="971.63" y2="414.37"/><line class="a" x1="933.79" y1="419.95" x2="933.79" y2="382.25"/><path class="a" d="M932.37,423.38a4.84,4.84,0,0,0,1.42-3.43"/><path class="a" d="M933.79,382.25a4.86,4.86,0,0,0-1.42-3.43"/><line class="a" x1="971.63" y1="414.37" x2="971.63" y2="369.57"/><line class="a" x1="923.11" y1="369.57" x2="923.11" y2="367.15"/><line class="a" x1="923.11" y1="367.15" x2="925.54" y2="364.72"/><line class="a" x1="925.54" y1="437.49" x2="923.11" y2="435.06"/><line class="a" x1="923.11" y1="435.06" x2="923.11" y2="432.64"/><line class="a" x1="971.63" y1="430.21" x2="964.35" y2="437.49"/><path class="a" d="M959.91,437.49h4.44"/><line class="a" x1="971.63" y1="430.21" x2="971.63" y2="427.44"/><path class="a" d="M771.91,185a2.43,2.43,0,0,0-.64,1.64"/><line class="a" x1="822.56" y1="129.74" x2="771.91" y2="184.99"/><path class="a" d="M824.34,129a2.42,2.42,0,0,0-1.78.79"/><line class="a" x1="936.5" y1="128.95" x2="824.34" y2="128.95"/><path class="a" d="M938.29,129.74a2.44,2.44,0,0,0-1.79-.79"/><line class="a" x1="988.94" y1="184.99" x2="938.29" y2="129.74"/><path class="a" d="M989.57,186.63a2.42,2.42,0,0,0-.63-1.64"/><line class="a" x1="989.57" y1="216.27" x2="989.57" y2="186.63"/><line class="a" x1="963.17" y1="216.27" x2="989.57" y2="216.27"/><path class="a" d="M963.17,216.27a82.84,82.84,0,0,0-165.49,0"/><line class="a" x1="771.27" y1="216.27" x2="797.68" y2="216.27"/><line class="a" x1="771.27" y1="186.63" x2="771.27" y2="216.27"/><path class="a" d="M824.34,126.53a4.85,4.85,0,0,0-3.57,1.57"/><path class="a" d="M940.08,128.1a4.87,4.87,0,0,0-3.58-1.57"/><path class="a" d="M770.12,183.35a4.87,4.87,0,0,0-1.27,3.28"/><line class="a" x1="824.34" y1="126.53" x2="936.5" y2="126.53"/><line class="a" x1="940.08" y1="128.1" x2="990.72" y2="183.35"/><line class="a" x1="992" y1="186.63" x2="992" y2="216.27"/><line class="a" x1="992" y1="216.27" x2="989.57" y2="216.27"/><line class="a" x1="770.12" y1="183.35" x2="820.77" y2="128.1"/><line class="a" x1="807.5" y1="214.62" x2="805.85" y2="216.27"/><line class="a" x1="797.68" y1="216.27" x2="805.85" y2="216.27"/><line class="a" x1="953.35" y1="214.62" x2="955" y2="216.27"/><path class="a" d="M953.35,214.62a73.14,73.14,0,0,0-67.17-67.37"/><path class="a" d="M874.67,147.25l1.12-.32c.37-.1.75-.19,1.13-.26s.77-.14,1.15-.2.78-.09,1.17-.11.79,0,1.19,0,.78,0,1.17,0,.78.06,1.17.11l1.15.19q.58.12,1.14.27l1.12.32"/><path class="a" d="M874.67,147.25a73.14,73.14,0,0,0-67.17,67.37"/><line class="a" x1="955" y1="216.27" x2="963.17" y2="216.27"/><line class="a" x1="955" y1="216.27" x2="957.42" y2="218.7"/><line class="a" x1="964.17" y1="218.7" x2="963.17" y2="216.27"/><line class="a" x1="964.17" y1="218.7" x2="957.42" y2="218.7"/><line class="a" x1="796.68" y1="218.7" x2="771.27" y2="218.7"/><line class="a" x1="771.27" y1="218.7" x2="771.27" y2="216.27"/><line class="a" x1="797.68" y1="216.27" x2="796.68" y2="218.7"/><path class="a" d="M992,186.63a4.83,4.83,0,0,0-1.28-3.28"/><line class="a" x1="803.43" y1="218.7" x2="805.85" y2="216.27"/><line class="a" x1="796.68" y1="218.7" x2="803.43" y2="218.7"/><line class="a" x1="992" y1="216.27" x2="989.57" y2="218.7"/><line class="a" x1="989.57" y1="216.27" x2="989.57" y2="218.7"/><line class="a" x1="768.85" y1="216.27" x2="768.85" y2="186.63"/><line class="a" x1="771.27" y1="216.27" x2="768.85" y2="216.27"/><line class="a" x1="771.27" y1="218.7" x2="768.85" y2="216.27"/><line class="a" x1="989.57" y1="218.7" x2="964.17" y2="218.7"/><path class="a" d="M886,147.24c-.35-.12-.71-.23-1.07-.32s-.73-.19-1.1-.26-.74-.14-1.12-.19-.75-.09-1.12-.11-.75,0-1.13,0"/><path class="a" d="M880.41,146.32c-.38,0-.75,0-1.12,0s-.76.06-1.13.11-.74.12-1.11.19-.73.16-1.1.26-.72.2-1.08.32"/><path class="a" d="M886.08,147.24l-.25,0-.84-.05-.89,0-.92,0q-.48,0-1,0l-1,0h-2l-1,0-1,0-1,0-.95.06-.59,0"/><line class="a" x1="874.87" y1="147.24" x2="874.67" y2="147.25"/><line class="a" x1="886.18" y1="147.25" x2="885.97" y2="147.24"/><line class="a" x1="919.23" y1="370.06" x2="909.53" y2="370.06"/><line class="a" x1="919.23" y1="370.06" x2="919.23" y2="408.86"/><line class="a" x1="909.53" y1="408.86" x2="919.23" y2="408.86"/><line class="a" x1="870.72" y1="379.76" x2="841.61" y2="379.76"/><line class="a" x1="841.61" y1="374.91" x2="870.72" y2="374.91"/><path class="a" d="M841.61,379.76a9.7,9.7,0,0,0,0,19.4"/><path class="a" d="M841.61,374.91a14.55,14.55,0,0,0,0,29.1"/><path class="a" d="M870.72,404a14.55,14.55,0,0,0,0-29.1"/><path class="a" d="M870.72,399.16a9.7,9.7,0,0,0,0-19.4"/><line class="a" x1="841.61" y1="399.16" x2="870.72" y2="399.16"/><line class="a" x1="870.72" y1="404.01" x2="841.61" y2="404.01"/><line class="a" x1="919.23" y1="408.86" x2="916.81" y2="411.29"/><line class="a" x1="916.81" y1="411.29" x2="909.53" y2="411.29"/><line class="a" x1="802.81" y1="367.63" x2="909.53" y2="367.63"/><line class="a" x1="909.53" y1="370.06" x2="802.81" y2="370.06"/><line class="a" x1="909.53" y1="367.63" x2="916.81" y2="367.63"/><line class="a" x1="916.81" y1="367.63" x2="919.23" y2="370.06"/><line class="a" x1="802.81" y1="408.86" x2="909.53" y2="408.86"/><line class="a" x1="909.53" y1="411.29" x2="802.81" y2="411.29"/><line class="a" x1="793.1" y1="408.86" x2="802.81" y2="408.86"/><line class="a" x1="802.81" y1="411.29" x2="795.53" y2="411.29"/><line class="a" x1="793.1" y1="408.86" x2="795.53" y2="411.29"/><line class="a" x1="793.1" y1="381.7" x2="793.1" y2="370.06"/><line class="a" x1="802.81" y1="370.06" x2="793.1" y2="370.06"/><line class="a" x1="793.1" y1="408.86" x2="793.1" y2="397.22"/><path class="a" d="M793.1,397.22c0-1.19.06-2.46.1-3.77s.07-2.66.07-4,0-2.69-.07-4-.1-2.57-.1-3.76"/><line class="a" x1="795.53" y1="367.63" x2="802.81" y2="367.63"/><line class="a" x1="795.53" y1="367.63" x2="793.1" y2="370.06"/><line class="a" x1="793.1" y1="381.7" x2="793.1" y2="397.23"/><line class="a" x1="841.61" y1="357.93" x2="844.04" y2="356.44"/><path class="a" d="M844,356.44c0,.18,0,.36,0,.54s0,.37,0,.55,0,.36-.07.54-.06.36-.1.54-.08.36-.13.53l-.12.4c0,.14-.08.27-.13.4l-.15.39-.16.39c-.06.13-.12.26-.19.39l-.19.37c-.1.17-.19.34-.29.5l-.32.49-.35.48-.38.46-.37.41a4.89,4.89,0,0,1-.4.39,5.23,5.23,0,0,1-.42.39l-.44.37-.64.46-.68.44-.72.39q-.36.18-.72.33c-.24.11-.48.2-.73.29l-.73.24-.67.17-.67.14-.66.1-.33,0a3.16,3.16,0,0,1-.32,0l-.26,0H832"/><path class="a" d="M832.2,367.63l.54,0a7.53,7.53,0,0,0,.83-.1,10.18,10.18,0,0,0,1.62-.43,9.44,9.44,0,0,0,1.55-.72,10.68,10.68,0,0,0,1.46-1,9.73,9.73,0,0,0,1.3-1.34,10,10,0,0,0,.58-.82,8,8,0,0,0,.49-.86,9,9,0,0,0,.44-1c.12-.33.23-.68.32-1s.11-.51.16-.78.07-.51.09-.78,0-.53,0-.79"/><line class="a" x1="916.81" y1="367.63" x2="916.81" y2="338.52"/><line class="a" x1="844.04" y1="338.52" x2="844.04" y2="356.44"/><line class="a" x1="919.23" y1="338.52" x2="919.23" y2="370.06"/><line class="a" x1="817.36" y1="411.29" x2="817.36" y2="416.11"/><line class="a" x1="816.87" y1="416.35" x2="816.87" y2="411.29"/><line class="a" x1="795.53" y1="411.29" x2="795.53" y2="416.35"/><line class="a" x1="793.1" y1="415.19" x2="793.1" y2="408.86"/><line class="a" x1="919.23" y1="408.86" x2="919.94" y2="408.86"/><line class="a" x1="918.23" y1="411.29" x2="916.81" y2="411.29"/><path class="a" d="M919.23,364.69a2.43,2.43,0,0,0,.71,1.71"/><line class="a" x1="928.45" y1="374.91" x2="919.94" y2="366.4"/><line class="a" x1="928.45" y1="374.91" x2="928.45" y2="384.61"/><line class="a" x1="928.45" y1="384.61" x2="928.45" y2="408.86"/><line class="a" x1="919.94" y1="408.86" x2="928.45" y2="408.86"/><line class="a" x1="928.45" y1="408.86" x2="926.02" y2="411.29"/><line class="a" x1="926.02" y1="411.29" x2="918.23" y2="411.29"/><line class="a" x1="795.53" y1="416.35" x2="795.53" y2="432.92"/><line class="a" x1="816.87" y1="420.93" x2="816.87" y2="416.35"/><path class="a" d="M819.25,432.92l-.28-.64c-.09-.22-.18-.44-.26-.66-.17-.45-.33-.91-.48-1.37s-.28-1-.41-1.44-.23-1-.33-1.5-.19-1-.27-1.56-.14-1.05-.19-1.58-.09-1.08-.12-1.62l0-.81c0-.27,0-.54,0-.81"/><line class="a" x1="817.36" y1="416.11" x2="817.36" y2="420.7"/><line class="a" x1="793.1" y1="431.75" x2="793.1" y2="415.19"/><path class="a" d="M817.36,420.7c0,.27,0,.54,0,.81s0,.54,0,.81c0,.54.06,1.08.11,1.61s.1,1.06.18,1.59.15,1,.25,1.55.2,1,.32,1.51.25,1,.39,1.44.29.92.46,1.37c.08.22.16.44.25.66s.17.42.26.63"/><path class="a" d="M819.62,432.68c.09.19.17.37.27.55a5.19,5.19,0,0,0,.31.5"/><line class="a" x1="841.61" y1="357.93" x2="841.61" y2="338.52"/><path class="a" d="M819.86,434c-.06-.09-.12-.17-.17-.26s-.11-.18-.16-.27l-.15-.28c0-.1-.09-.2-.13-.29"/><line class="a" x1="827.28" y1="437.97" x2="795.53" y2="437.97"/><line class="a" x1="795.53" y1="432.92" x2="795.53" y2="437.97"/><path class="a" d="M827.28,438h-.54l-.53,0-.54-.09-.53-.11a10.24,10.24,0,0,1-1-.33,10.83,10.83,0,0,1-1-.45,10.09,10.09,0,0,1-.93-.57,9.28,9.28,0,0,1-.86-.69,9.57,9.57,0,0,1-.78-.78,4.82,4.82,0,0,1-.36-.43c-.12-.14-.22-.29-.33-.44"/><line class="a" x1="793.1" y1="435.55" x2="795.53" y2="437.97"/><line class="a" x1="793.1" y1="435.55" x2="793.1" y2="431.75"/><path class="a" d="M820.2,433.73l.26.34c.14.17.28.33.43.49l.38.38a4.48,4.48,0,0,0,.4.36l.42.34.44.31c.18.12.35.22.53.32s.27.15.41.22.37.18.55.26l.43.17.59.2.45.12.6.12.46.06.54.05.54,0"/><line class="a" x1="827.63" y1="437.49" x2="827.28" y2="437.97"/><line class="a" x1="833.92" y1="412.06" x2="824.4" y2="421.58"/><line class="a" x1="824.4" y1="421.58" x2="833.92" y2="431.1"/><line class="a" x1="827.63" y1="437.49" x2="833.92" y2="437.49"/><line class="a" x1="920.36" y1="323.29" x2="988.86" y2="254.79"/><line class="a" x1="990.58" y1="256.5" x2="922.07" y2="325.01"/><path class="a" d="M988.86,254.79a2.41,2.41,0,0,0,.71-1.72"/><path class="a" d="M990.58,256.5a4.84,4.84,0,0,0,1.42-3.43"/><path class="a" d="M920.36,323.29a12.12,12.12,0,0,0-3.55,8.58"/><path class="a" d="M922.07,325a9.7,9.7,0,0,0-2.84,6.86"/><line class="a" x1="838.77" y1="325.01" x2="770.27" y2="256.5"/><line class="a" x1="771.98" y1="254.79" x2="840.49" y2="323.29"/><line class="a" x1="797.68" y1="221.13" x2="771.27" y2="221.13"/><line class="a" x1="771.27" y1="221.13" x2="771.27" y2="218.7"/><line class="a" x1="796.68" y1="218.7" x2="797.68" y2="221.13"/><path class="a" d="M771.27,253.07a2.45,2.45,0,0,0,.71,1.72"/><line class="a" x1="771.27" y1="221.13" x2="771.27" y2="253.07"/><path class="a" d="M797.68,221.13a82.84,82.84,0,0,0,165.49,0"/><line class="a" x1="989.57" y1="221.13" x2="963.17" y2="221.13"/><line class="a" x1="989.57" y1="253.07" x2="989.57" y2="221.13"/><line class="a" x1="916.81" y1="338.52" x2="916.81" y2="331.87"/><line class="a" x1="844.04" y1="331.87" x2="844.04" y2="338.52"/><path class="a" d="M844,331.87a12.16,12.16,0,0,0-3.55-8.58"/><line class="a" x1="919.23" y1="331.87" x2="919.23" y2="338.52"/><line class="a" x1="989.57" y1="218.7" x2="989.57" y2="221.13"/><line class="a" x1="963.17" y1="221.13" x2="964.17" y2="218.7"/><path class="a" d="M768.85,253.07a4.84,4.84,0,0,0,1.42,3.43"/><line class="a" x1="805.86" y1="221.13" x2="803.43" y2="218.7"/><line class="a" x1="805.86" y1="221.13" x2="797.68" y2="221.13"/><line class="a" x1="841.61" y1="338.52" x2="841.61" y2="331.87"/><line class="a" x1="957.42" y1="218.7" x2="954.99" y2="221.13"/><line class="a" x1="954.99" y1="221.13" x2="963.17" y2="221.13"/><path class="a" d="M841.61,331.87a9.7,9.7,0,0,0-2.84-6.86"/><line class="a" x1="989.57" y1="218.7" x2="992" y2="221.13"/><line class="a" x1="989.57" y1="221.13" x2="992" y2="221.13"/><path class="a" d="M805.86,221.13l1.64,1.65"/><path class="a" d="M807.5,222.78a73.13,73.13,0,0,0,145.85,0"/><path class="a" d="M955,221.13l-1.64,1.65"/><line class="a" x1="992" y1="221.13" x2="992" y2="253.07"/><line class="a" x1="768.85" y1="253.07" x2="768.85" y2="221.13"/><line class="a" x1="768.85" y1="221.13" x2="771.27" y2="221.13"/><line class="a" x1="768.85" y1="221.13" x2="771.27" y2="218.7"/><line class="a" x1="833.58" y1="437.97" x2="827.28" y2="437.97"/><line class="a" x1="836.76" y1="433.95" x2="836.76" y2="437.49"/><line class="a" x1="833.92" y1="437.49" x2="836.76" y2="437.49"/><line class="a" x1="836.76" y1="433.95" x2="833.92" y2="431.1"/><line class="a" x1="836.76" y1="437.49" x2="836.28" y2="437.97"/><line class="a" x1="836.28" y1="437.97" x2="833.58" y2="437.97"/><line class="a" x1="833.92" y1="412.06" x2="834.69" y2="411.29"/><line class="a" x1="839.19" y1="420.99" x2="904.68" y2="420.99"/><line class="a" x1="904.68" y1="423.42" x2="839.19" y2="423.42"/><line class="a" x1="909.53" y1="411.29" x2="909.53" y2="420.99"/><line class="a" x1="904.68" y1="420.99" x2="909.53" y2="420.99"/><line class="a" x1="834.34" y1="420.99" x2="839.19" y2="420.99"/><line class="a" x1="834.34" y1="420.99" x2="834.34" y2="411.64"/><line class="a" x1="907.1" y1="423.42" x2="904.68" y2="423.42"/><line class="a" x1="907.1" y1="423.42" x2="909.53" y2="420.99"/><line class="a" x1="839.19" y1="423.42" x2="836.76" y2="423.42"/><line class="a" x1="834.34" y1="420.99" x2="836.76" y2="423.42"/><line class="a" x1="934.08" y1="377.11" x2="932.37" y2="378.82"/><line class="a" x1="971.63" y1="369.57" x2="969.2" y2="369.57"/><line class="a" x1="934.08" y1="425.1" x2="932.37" y2="423.38"/><line class="a" x1="969.2" y1="369.57" x2="926.54" y2="369.57"/><line class="a" x1="926.54" y1="432.64" x2="957.07" y2="432.64"/><line class="a" x1="971.63" y1="418.53" x2="962.33" y2="426.49"/><line class="a" x1="971.63" y1="427.44" x2="959.91" y2="437.49"/><line class="a" x1="971.63" y1="414.37" x2="969.2" y2="414.37"/><line class="a" x1="936.21" y1="419.95" x2="933.79" y2="419.95"/><line class="a" x1="936.21" y1="382.25" x2="933.79" y2="382.25"/><line class="a" x1="824.34" y1="126.53" x2="824.34" y2="128.95"/><line class="a" x1="820.77" y1="128.1" x2="822.56" y2="129.74"/><line class="a" x1="940.08" y1="128.1" x2="938.29" y2="129.74"/><line class="a" x1="936.5" y1="126.53" x2="936.5" y2="128.95"/><line class="a" x1="770.12" y1="183.35" x2="771.91" y2="184.99"/><line class="a" x1="768.85" y1="186.63" x2="771.27" y2="186.63"/><line class="a" x1="990.72" y1="183.35" x2="988.94" y2="184.99"/><line class="a" x1="992" y1="186.63" x2="989.57" y2="186.63"/><line class="a" x1="909.53" y1="408.86" x2="909.53" y2="370.06"/><line class="a" x1="841.61" y1="379.76" x2="841.61" y2="374.91"/><line class="a" x1="870.72" y1="374.91" x2="870.72" y2="379.76"/><line class="a" x1="841.61" y1="399.16" x2="841.61" y2="404.01"/><line class="a" x1="870.72" y1="404.01" x2="870.72" y2="399.16"/><line class="a" x1="909.53" y1="408.86" x2="909.53" y2="411.29"/><line class="a" x1="909.53" y1="367.63" x2="909.53" y2="370.06"/><line class="a" x1="802.81" y1="367.63" x2="802.81" y2="370.06"/><line class="a" x1="802.81" y1="370.06" x2="802.81" y2="408.86"/><line class="a" x1="802.81" y1="408.86" x2="802.81" y2="411.29"/><line class="a" x1="844.04" y1="338.52" x2="916.81" y2="338.52"/><line class="a" x1="916.81" y1="338.52" x2="919.23" y2="338.52"/><line class="a" x1="817.36" y1="416.11" x2="816.87" y2="416.35"/><line class="a" x1="816.87" y1="416.35" x2="795.53" y2="416.35"/><line class="a" x1="793.1" y1="415.19" x2="795.53" y2="416.35"/><line class="a" x1="919.94" y1="408.86" x2="918.23" y2="411.29"/><line class="a" x1="919.94" y1="366.4" x2="919.94" y2="384.61"/><line class="a" x1="919.94" y1="384.61" x2="919.23" y2="384.61"/><line class="a" x1="919.94" y1="384.61" x2="919.94" y2="408.86"/><line class="a" x1="928.45" y1="384.61" x2="919.94" y2="384.61"/><line class="a" x1="795.53" y1="432.92" x2="819.25" y2="432.92"/><line class="a" x1="817.36" y1="420.7" x2="816.87" y2="420.93"/><line class="a" x1="793.1" y1="431.75" x2="795.53" y2="432.92"/><line class="a" x1="819.62" y1="432.68" x2="819.25" y2="432.92"/><line class="a" x1="820.2" y1="411.29" x2="820.2" y2="433.73"/><line class="a" x1="841.61" y1="338.52" x2="844.04" y2="338.52"/><line class="a" x1="820.2" y1="433.73" x2="819.86" y2="434.02"/><line class="a" x1="833.92" y1="412.06" x2="833.92" y2="411.29"/><line class="a" x1="833.92" y1="437.49" x2="833.92" y2="431.1"/><line class="a" x1="988.86" y1="254.79" x2="990.58" y2="256.5"/><line class="a" x1="920.36" y1="323.29" x2="922.07" y2="325.01"/><line class="a" x1="989.57" y1="253.07" x2="992" y2="253.07"/><line class="a" x1="916.81" y1="331.87" x2="919.23" y2="331.87"/><line class="a" x1="770.27" y1="256.5" x2="771.98" y2="254.79"/><line class="a" x1="838.77" y1="325.01" x2="840.49" y2="323.29"/><line class="a" x1="768.85" y1="253.07" x2="771.27" y2="253.07"/><line class="a" x1="841.61" y1="331.87" x2="844.04" y2="331.87"/><line class="a" x1="833.92" y1="437.49" x2="833.58" y2="437.97"/><line class="a" x1="904.68" y1="420.99" x2="904.68" y2="423.42"/><line class="a" x1="839.19" y1="420.99" x2="839.19" y2="423.42"/><line class="a" x1="904.68" y1="420.99" x2="904.68" y2="411.29"/><line class="a" x1="839.19" y1="411.29" x2="839.19" y2="420.99"/><line class="b" x1="708.91" y1="227.56" x2="708.91" y2="278.7"/><polygon points="706 229.54 708.91 218.7 711.81 229.54 706 229.54"/><line class="b" x1="708.91" y1="402.43" x2="708.91" y2="351.29"/><polygon points="711.81 400.45 708.91 411.29 706 400.45 711.81 400.45"/><line class="c" x1="758.85" y1="218.7" x2="698.85" y2="218.7"/><line class="c" x1="783.1" y1="411.29" x2="698.85" y2="411.29"/><path d="M690.32,314.83l10.25-14.9h3.32v14.9h4.17v2.85h-4.17v6.22h-3.32v-6.22H690.32Zm10.25,0v-9.9l-6.65,9.9Z"/><path d="M711.3,320.09V303.75a3.77,3.77,0,0,1,3.78-3.82h6.59a3.8,3.8,0,0,1,3.85,3.82v16.34a3.8,3.8,0,0,1-3.85,3.81h-6.59A3.76,3.76,0,0,1,711.3,320.09Zm10.91-15.63A1.48,1.48,0,0,0,720.7,303h-4.57a1.47,1.47,0,0,0-1.51,1.51v14.91a1.47,1.47,0,0,0,1.51,1.51h4.57a1.48,1.48,0,0,0,1.51-1.51Z"/></svg>